<?xml version="1.0" standalone="no"?>
<!DOCTYPE svg PUBLIC "-//W3C//DTD SVG 1.1//EN" "http://www.w3.org/Graphics/SVG/1.1/DTD/svg11.dtd" >
<svg xmlns="http://www.w3.org/2000/svg">
<metadata></metadata>
<defs>
<font id="oxygenbold" horiz-adv-x="499" >
<font-face units-per-em="2048" ascent="1638" descent="-410" />
<missing-glyph horiz-adv-x="444" />
<glyph horiz-adv-x="2048" />
<glyph horiz-adv-x="2048" />
<glyph unicode="&#xd;" horiz-adv-x="0" />
<glyph unicode=" "  horiz-adv-x="444" />
<glyph unicode="&#x09;" horiz-adv-x="444" />
<glyph unicode="&#xa0;" horiz-adv-x="444" />
<glyph unicode="!" horiz-adv-x="397" d="M80 1446h256v-248l-68 -743h-116l-72 743v248zM360 139q0 -66 -47 -112.5t-112 -46.5q-66 0 -114 46.5t-48 112.5t48 114t114 48q65 0 112 -48t47 -114z" />
<glyph unicode="&#x22;" horiz-adv-x="645" d="M582 938h-181l-32 514h213v-514zM279 938h-181l-37 514h218v-514z" />
<glyph unicode="#" horiz-adv-x="1064" d="M889 1079h143l-20 -182h-158l-66 -332h158l-18 -184h-168l-78 -404h-195l74 404h-149l-78 -404h-199l80 404h-180l14 184h199l57 330h-188l14 184h205l78 375h194l-71 -375h155l72 375h197zM598 565l59 332h-155l-62 -332h158z" />
<glyph unicode="$" horiz-adv-x="1175" d="M561 1638h103v-1835h-103v1835zM997 1163q-146 90 -395 90q-229 0 -229 -157q0 -76 38 -114.5t113 -63.5l199 -66q54 -18 91.5 -32.5t85 -37t80.5 -45.5t67 -56t54 -70.5t33 -87t13 -107.5q0 -109 -43 -193t-120 -136.5t-178 -79.5t-222 -27q-328 0 -521 124l78 218 q77 -49 199 -81t242 -32q268 0 268 172q0 39 -12.5 70.5t-30.5 52t-51 40t-60.5 30t-72.5 26.5l-183 62q-61 20 -108.5 41t-97.5 55.5t-83 75.5t-54 101t-21 132q0 133 72 228t189 139.5t265 44.5q313 0 473 -115z" />
<glyph unicode="%" horiz-adv-x="1732" d="M395 834q83 0 124.5 61t41.5 162q0 102 -40.5 162.5t-123.5 60.5t-123.5 -61.5t-40.5 -163.5t39.5 -161.5t122.5 -59.5zM1196 1450h231l-4 -8l-919 -1483h-232l922 1487zM393 659q-166 0 -261 112t-95 284q0 171 97 284t263 113q175 0 274 -110.5t99 -282.5v-2 q0 -169 -104 -283.5t-273 -114.5zM967 375q-6 34 -6 67q0 148 100 238t266 90q179 0 275 -109t96 -282q0 -168 -98.5 -281.5t-262.5 -113.5q-172 0 -271 110.5t-99 278.5v2zM1341 156q82 0 121 60.5t39 162.5q0 101 -42.5 160t-133.5 59q-38 0 -65 -11.5t-42.5 -30.5 t-24.5 -49.5t-12 -61t-3 -72.5q0 -100 40 -158.5t123 -58.5z" />
<glyph unicode="&#x26;" horiz-adv-x="1398" d="M1012 432q70 80 141 213l182 -121q-67 -132 -170 -250l207 -219l-229 -71l-139 145q-205 -152 -445 -152q-77 0 -149 14t-140 46.5t-118 80.5t-80.5 123t-30.5 167q0 79 25 146t71.5 119.5t99 91t121.5 75.5q-71 80 -107 148t-36 157q0 86 32 152.5t86 106t119.5 59.5 t139.5 20q72 0 139 -18.5t125 -55t93.5 -100.5t35.5 -146q0 -56 -18.5 -106.5t-46 -87.5t-71 -72.5t-81.5 -59t-88 -49.5zM483 715q-90 -53 -141 -119.5t-51 -163.5q0 -65 22 -112.5t62 -74t87.5 -38.5t104.5 -12q143 0 283 96zM549 918q35 19 54.5 31t49 34.5t45 43.5 t27.5 51.5t12 64.5q0 69 -38.5 104t-104.5 35q-70 0 -111 -36t-41 -109q0 -62 28 -112t79 -107z" />
<glyph unicode="'" horiz-adv-x="344" d="M279 938h-181l-37 514h218v-514z" />
<glyph unicode="(" horiz-adv-x="622" d="M94 635q0 133 21 254.5t62.5 230.5t84 193t103.5 184h266q-10 -18 -27.5 -50.5t-61 -132t-77 -197.5t-61 -232t-27.5 -250t26 -248t63.5 -237t75 -193.5t63.5 -136.5l26 -49h-266q-61 100 -103.5 184.5t-84 193.5t-62.5 231t-21 255z" />
<glyph unicode=")" horiz-adv-x="622" d="M530 635q0 -133 -21.5 -255t-63 -231t-84 -193.5t-103.5 -184.5h-264q10 18 27.5 51t61 132.5t77 197.5t61 232.5t27.5 250.5t-26 248t-63.5 236.5t-75 192.5t-63.5 136l-26 49h264q61 -101 103.5 -184.5t84 -192.5t63 -230.5t21.5 -254.5z" />
<glyph unicode="*" horiz-adv-x="1058" d="M530 825l-192 -309l-201 121l252 299l-340 123l94 186l306 -147l-27 346h217l-27 -346l303 147l95 -186l-340 -123l252 -299l-199 -121z" />
<glyph unicode="+" horiz-adv-x="1198" d="M68 461v198h424v398h219v-398h422v-198h-424v-400h-220v400h-421z" />
<glyph unicode="," horiz-adv-x="423" d="M152 223h239l-174 -528h-180z" />
<glyph unicode="-" horiz-adv-x="696" d="M629 432h-559v195h559v-195z" />
<glyph unicode="." horiz-adv-x="425" d="M219 -20q-66 0 -114 46.5t-48 112.5t48 114t114 48q65 0 112.5 -48t47.5 -114t-47.5 -112.5t-112.5 -46.5z" />
<glyph unicode="/" horiz-adv-x="921" d="M868 1497l-587 -1675h-230l586 1675h231z" />
<glyph unicode="0" horiz-adv-x="1296" d="M649 1479q121 0 217 -42t158 -112.5t103 -169t58 -204.5t17 -226t-17 -225t-57.5 -202t-102.5 -166.5t-158 -110.5t-218 -41t-218 41t-158.5 110.5t-103.5 166.5t-58 202t-17 225t17.5 226.5t58.5 205t103.5 168.5t158.5 112t217 42zM649 211q53 0 95 20.5t69 59.5t46 86 t28.5 109t13.5 120t4 127q0 68 -4 125t-13.5 117.5t-28.5 106.5t-46 83.5t-69 57.5t-95 20q-63 0 -110.5 -29.5t-74.5 -76t-44 -116t-22.5 -135t-6.5 -147.5h2v-6q0 -70 4 -127.5t13.5 -120t28 -109.5t46 -85.5t69 -59t95.5 -20.5z" />
<glyph unicode="1" horiz-adv-x="696" d="M43 1079v213l295 156h240v-1448h-279v1190z" />
<glyph unicode="2" horiz-adv-x="1013" d="M129 1122l-80 213q82 73 178 108.5t224 35.5q212 0 349.5 -117t137.5 -322q0 -80 -25 -158.5t-71 -149t-85.5 -118.5t-94.5 -106l-285 -297h547l-21 -211h-850v233l441 488q72 77 111.5 152.5t39.5 166.5q0 85 -63 144t-152 59q-162 0 -301 -121z" />
<glyph unicode="3" horiz-adv-x="1048" d="M989 406v-13q0 -133 -71.5 -228.5t-187 -140t-261.5 -44.5q-126 0 -239 32.5t-183 93.5l76 203q53 -45 149.5 -71.5t194.5 -26.5q101 0 163 56.5t62 144.5q0 59 -17.5 100t-47 66t-79.5 39.5t-102 19.5t-129 6h-57v221h57q84 0 144 8.5t110 29t75.5 60t25.5 97.5 q0 72 -60 128t-168 56q-185 0 -323 -82l-76 205q83 62 184.5 87.5t239.5 25.5q214 0 345.5 -114t131.5 -288q0 -113 -58.5 -195.5t-172.5 -119.5q130 -33 200.5 -127.5t73.5 -228.5z" />
<glyph unicode="4" horiz-adv-x="1239" d="M637 1446h379v-922h174l-12 -215h-162v-309h-297v309h-635v187zM391 524h328v594z" />
<glyph unicode="5" horiz-adv-x="1103" d="M383 899q104 39 207 39q193 0 315.5 -130.5t122.5 -342.5q0 -221 -128 -353t-365 -132q-64 0 -132.5 14.5t-121 35t-96 41.5t-66.5 35l-23 15l82 203q6 -5 17.5 -13t46.5 -28t70.5 -35.5t85.5 -28t96 -12.5q127 0 189 72t62 190q0 116 -61 190t-168 74q-43 0 -93.5 -18.5 t-90.5 -59.5l-180 33l36 758h787l-14 -221h-566z" />
<glyph unicode="6" horiz-adv-x="1189" d="M639 1446h352l-416 -539q60 11 84 11q221 0 359.5 -127t138.5 -332q0 -144 -73.5 -254t-198 -167.5t-279.5 -57.5q-244 0 -400.5 130.5t-156.5 350.5q0 65 14.5 126.5t44.5 119t53.5 94.5t63.5 92zM854 453q0 258 -256 258q-252 0 -252 -265q0 -118 64.5 -184.5 t183.5 -66.5q123 0 191.5 69t68.5 189z" />
<glyph unicode="7" horiz-adv-x="999" d="M51 1446h932v-164l-485 -1282h-287l453 1231h-613v215z" />
<glyph unicode="8" horiz-adv-x="1124" d="M852 760q223 -122 223 -371q0 -130 -70.5 -224.5t-184.5 -139.5t-257 -45t-258 45.5t-185.5 139.5t-70.5 224q0 247 242 371q-215 115 -215 338q0 124 67 211.5t175 128.5t245 41t245.5 -41t175.5 -128.5t67 -211.5q0 -220 -199 -338zM563 672q-248 -69 -248 -271 q0 -104 64 -156t184 -52q246 0 246 210q0 107 -67.5 172.5t-178.5 96.5zM563 829q240 57 240 256q0 84 -67 132.5t-173 48.5q-105 0 -172 -48.5t-67 -132.5q0 -200 239 -256z" />
<glyph unicode="9" horiz-adv-x="1214" d="M367 1006q0 -125 63.5 -191.5t194.5 -66.5q249 0 249 264q0 119 -63.5 185.5t-181.5 66.5q-123 0 -192.5 -69t-69.5 -189zM584 0h-355l416 551q-55 -10 -84 -10q-221 0 -359.5 126.5t-138.5 331.5q0 144 73.5 254.5t198 168t279.5 57.5q244 0 400.5 -131t156.5 -351 q0 -65 -14.5 -126.5t-44.5 -119t-53.5 -94.5t-63.5 -92z" />
<glyph unicode=":" horiz-adv-x="446" d="M369 788h-283v277h283v-277zM369 0h-283v276h283v-276z" />
<glyph unicode=";" horiz-adv-x="423" d="M389 788h-285v277h285v-277zM150 244h239l-123 -570h-172z" />
<glyph unicode="&#x3c;" horiz-adv-x="1081" d="M342 557l698 -309v-219l-1005 465v124l1007 478v-219z" />
<glyph unicode="=" horiz-adv-x="1183" d="M72 283v196h1042v-196h-1042zM70 639v199h1042v-199h-1042z" />
<glyph unicode="&#x3e;" horiz-adv-x="1083" d="M743 561l-698 330v219l1006 -492v-129l-1010 -450v219z" />
<glyph unicode="?" horiz-adv-x="886" d="M598 1090q0 85 -53 137.5t-146 52.5q-150 0 -280 -86l-76 174q88 56 174 83.5t211 27.5q53 0 107 -12.5t105.5 -40.5t91.5 -68t64.5 -99t24.5 -129q0 -79 -39.5 -162.5t-92 -148.5t-128 -169t-125.5 -197h-119q13 84 47.5 164.5t73 140.5t75.5 115.5t61 111t24 105.5z M528 139q0 -66 -47 -112.5t-112 -46.5q-66 0 -114 46.5t-48 112.5t48 114t114 48q65 0 112 -48t47 -114z" />
<glyph unicode="@" horiz-adv-x="1632" d="M944 246q-103 -107 -229 -107q-141 0 -221 97.5t-80 244.5q0 142 65 263.5t178 193.5t246 72q117 0 291 -60l23 -8l-5 -27q-11 -52 -32.5 -145t-38.5 -170t-29 -143q-8 -49 -8 -82q0 -42 13.5 -58t49.5 -16q68 0 119 57.5t74.5 141.5t23.5 178q0 242 -142 377t-386 135 h-2q-21 24 -66 24q-43 0 -102.5 -25t-114 -62.5t-89.5 -64t-56 -44.5h-4q-39 0 -103.5 -187.5t-64.5 -259.5q0 -286 167.5 -454t455.5 -168q263 0 434 141l20 16l111 -126l-25 -21q-211 -188 -543 -188q-175 0 -328 60t-255 159q-236 233 -236 581q0 171 65 314t171 252 q103 103 249.5 167t315.5 64q151 0 278.5 -50t221.5 -136q101 -92 162 -220t61 -288q0 -175 -74.5 -308t-197.5 -200q-76 -43 -164 -43q-141 0 -199 123zM737 324h11q42 2 77.5 24.5t60.5 63t44 85t34 105.5t24.5 109t20.5 111q1 5 1 7q-79 9 -107 9q-80 0 -145 -52.5 t-99 -136t-34 -178.5q0 -147 112 -147z" />
<glyph unicode="A" horiz-adv-x="1298" d="M1028 0l-158 444h-428l-157 -444h-295l39 121l487 1325h281l473 -1325l41 -121h-283zM506 627h295l-144 489z" />
<glyph unicode="B" horiz-adv-x="1308" d="M1247 424q0 -112 -42 -195t-120.5 -132.5t-181.5 -73t-233 -23.5h-549v1446h491q106 0 189.5 -9.5t160.5 -34t127.5 -65t80.5 -106t30 -152.5q0 -186 -184 -295q231 -99 231 -360zM911 1038q0 46 -10 79.5t-33 55.5t-50 36t-71 21t-85 9t-103 2h-139v-371h227 q133 0 198.5 37t65.5 131zM952 434q0 133 -71.5 185.5t-231.5 52.5h-229v-469h211q164 0 242.5 50.5t78.5 180.5z" />
<glyph unicode="C" horiz-adv-x="1275" d="M1233 106q-104 -75 -210 -100.5t-232 -25.5q-147 0 -276.5 51t-228.5 144.5t-156.5 237.5t-57.5 320q0 169 55.5 310t152 236t229 147.5t284.5 52.5q279 0 438 -142l-78 -211q-70 59 -147 88t-197 29q-193 0 -313.5 -139t-120.5 -373q0 -251 118.5 -385.5t313.5 -134.5 q210 0 352 108z" />
<glyph unicode="D" horiz-adv-x="1495" d="M1423 719q0 -231 -105 -394.5t-288 -244t-428 -80.5h-481v1446h391q167 0 304 -24.5t251 -79t192 -138.5t121 -206.5t43 -278.5zM1126 715q0 142 -36 239.5t-112 156.5t-183.5 84.5t-259.5 25.5h-115v-998h201q244 0 374.5 127t130.5 365z" />
<glyph unicode="E" horiz-adv-x="1128" d="M1063 1446l-25 -219h-618v-359h596v-217h-596v-432l672 -8l-13 -211h-958v1446h942z" />
<glyph unicode="F" horiz-adv-x="1038" d="M1028 1446l-20 -219h-590v-373h569v-217h-567v-637h-299v1446h907z" />
<glyph unicode="G" horiz-adv-x="1429" d="M1057 268v316h-312l13 207h565v-676q-133 -66 -251 -100.5t-265 -34.5q-333 0 -534 204.5t-201 548.5q0 127 31 239.5t93 205.5t149 160t205 104t255 37q301 0 479 -142l-88 -194q-172 100 -377 100q-208 0 -325.5 -130.5t-118.5 -381.5v-8q0 -150 44 -263t141 -181 t237 -68q158 0 260 57z" />
<glyph unicode="H" horiz-adv-x="1472" d="M1055 1446h299v-1446h-299v645h-635v-645h-299v1446h299v-592h635v592z" />
<glyph unicode="I" horiz-adv-x="565" d="M432 1446v-1446h-299v1446h299z" />
<glyph unicode="J" horiz-adv-x="634" d="M-45 -88h82q111 0 145.5 46t34.5 171v1317h297v-1307q0 -100 -14.5 -170.5t-48 -124.5t-92 -85t-141.5 -46.5t-200 -15.5h-47z" />
<glyph unicode="K" horiz-adv-x="1306" d="M420 582v-582h-299v1446h299v-602l504 602h354l-549 -660l608 -786h-346l-495 657z" />
<glyph unicode="L" horiz-adv-x="1003" d="M420 217h588l-17 -217h-870v1446h299v-1229z" />
<glyph unicode="M" horiz-adv-x="1734" d="M1350 0v950l-371 -743h-215l-379 751v-958h-264v1446h280l471 -911l467 911h277v-1446h-266z" />
<glyph unicode="N" horiz-adv-x="1447" d="M1073 0l-680 975v-975h-272v1446h248l686 -975v975h272v-1446h-254z" />
<glyph unicode="O" horiz-adv-x="1593" d="M1227 723q0 237 -109.5 378.5t-318.5 141.5q-207 0 -315.5 -141.5t-108.5 -378.5q0 -236 108.5 -374t315.5 -138q208 0 318 138.5t110 373.5zM72 727q0 175 55 317.5t152 237t230 146t288 51.5q156 0 289 -51.5t230.5 -146t152.5 -237t55 -317.5q0 -173 -55.5 -315 t-153 -236t-230.5 -145t-288 -51q-208 0 -371 87.5t-258.5 258.5t-95.5 401z" />
<glyph unicode="P" horiz-adv-x="1204" d="M420 0h-299v1446h483q271 0 422.5 -111t151.5 -340q0 -471 -549 -471q-135 0 -209 6v-530zM582 735q76 0 132.5 14t89 36.5t52.5 56t26.5 66t6.5 73.5v4q0 118 -73.5 181t-209.5 63h-186v-492q25 -2 162 -2z" />
<glyph unicode="Q" horiz-adv-x="1593" d="M1061 102q59 -105 136 -201.5t212 -219.5l-152 -150q-97 70 -200 201.5t-170 255.5zM1227 723q0 237 -109.5 378.5t-318.5 141.5q-207 0 -315.5 -141.5t-108.5 -378.5q0 -236 108.5 -374t315.5 -138q208 0 318 138.5t110 373.5zM72 727q0 175 55 317.5t152 237t230 146 t288 51.5q156 0 289 -51.5t230.5 -146t152.5 -237t55 -317.5q0 -173 -55.5 -315t-153 -236t-230.5 -145t-288 -51q-208 0 -371 87.5t-258.5 258.5t-95.5 401z" />
<glyph unicode="R" horiz-adv-x="1302" d="M1229 1034q0 -288 -258 -383q29 -34 55 -75.5t40 -69t44 -88.5l205 -418h-314l-157 344l-127 250q-19 2 -93.5 3t-139.5 1h-64v-598h-299v1446h557q107 0 187.5 -10.5t151.5 -38t116 -73.5t70.5 -118.5t25.5 -171.5zM952 1030q0 103 -65 151t-195 48h-272v-420h266 q140 0 203 51.5t63 169.5z" />
<glyph unicode="S" horiz-adv-x="1191" d="M997 1163q-146 90 -395 90q-229 0 -229 -157q0 -76 38 -114.5t113 -63.5l199 -66q54 -18 91.5 -32.5t85 -37t80.5 -45.5t67 -56t54 -70.5t33 -87t13 -107.5q0 -109 -43 -193t-120 -136.5t-178 -79.5t-222 -27q-328 0 -521 124l78 218q77 -49 199 -81t242 -32 q268 0 268 172q0 39 -12.5 70.5t-30.5 52t-51 40t-60.5 30t-72.5 26.5l-183 62q-61 20 -108.5 41t-97.5 55.5t-83 75.5t-54 101t-21 132q0 133 72 228t189 139.5t265 44.5q313 0 473 -115z" />
<glyph unicode="T" horiz-adv-x="1089" d="M692 1227v-1227h-297v1227h-422v219h1143v-219h-424z" />
<glyph unicode="U" horiz-adv-x="1388" d="M694 209q161 0 226 80t65 264v893h297v-907q0 -273 -147 -416t-441 -143t-441 143t-147 416v907h300v-893q0 -184 63.5 -264t224.5 -80z" />
<glyph unicode="V" horiz-adv-x="1318" d="M803 0h-264l-549 1446h297l387 -1088l368 1088h289z" />
<glyph unicode="W" horiz-adv-x="2078" d="M272 1446l285 -1059l361 1059h245l326 -1069l319 1069h285l-465 -1446h-280l-310 1063l-356 -1063h-276l-420 1446h286z" />
<glyph unicode="X" horiz-adv-x="1325" d="M1360 0h-340l-356 524l-375 -524h-322l529 729l-482 717h324l340 -526l358 526h305l-499 -715z" />
<glyph unicode="Y" horiz-adv-x="1241" d="M-37 1446h309l353 -604l348 604h305l-502 -860v-586h-297v586z" />
<glyph unicode="Z" horiz-adv-x="1210" d="M57 172l754 1055h-721v219h1092v-160l-758 -1069h750v-217h-1117v172z" />
<glyph unicode="[" horiz-adv-x="604" d="M420 -6h153v-182h-452v1757h452v-183h-153v-1392z" />
<glyph unicode="\" horiz-adv-x="970" d="M258 1460l680 -1579h-221l-682 1579h223z" />
<glyph unicode="]" horiz-adv-x="604" d="M186 1386h-153v183h452v-1757h-452v182h153v1392z" />
<glyph unicode="^" horiz-adv-x="1179" d="M41 551l483 891h127l490 -891h-215l-340 641l-328 -641h-217z" />
<glyph unicode="_" horiz-adv-x="1144" d="M70 -135h1005v-189h-1005v189z" />
<glyph unicode="`" horiz-adv-x="468" d="M-39 1516h313l230 -340h-209q-56 56 -167.5 169.5t-166.5 170.5z" />
<glyph unicode="a" horiz-adv-x="1069" d="M723 115q-79 -67 -152 -101t-168 -34q-151 0 -243 82.5t-92 222.5q0 50 8 91t27.5 73t42 56.5t61.5 44t75 33t94 26t107.5 21t124.5 19.5l76 13v49q0 53 -4 81.5t-19.5 54t-47 36t-85.5 12.5h-14q-113 0 -330 -74l-55 203q162 74 410 80h24q189 0 297.5 -88.5 t108.5 -257.5v-758h-217zM453 162q46 0 88.5 13t69 28t73.5 47v252l-76 -13q-41 -6 -66.5 -10.5t-59 -12.5t-54 -17t-43 -23.5t-35 -32t-20.5 -42.5t-8 -56q0 -61 33.5 -97t97.5 -36z" />
<glyph unicode="b" horiz-adv-x="1243" d="M385 0h-279v1497h283v-555q33 66 116 113.5t208 48.5h8q142 0 248.5 -78.5t158.5 -203.5t52 -275q0 -159 -57.5 -288t-164 -204t-241.5 -75h-15q-112 0 -192 47t-121 123zM907 539q0 82 -16 146t-41.5 103t-61 63.5t-71.5 34t-76 9.5q-51 0 -94.5 -18.5t-81 -57.5 t-59 -111t-21.5 -169q0 -99 21 -170t58.5 -109t80.5 -55t96 -17q51 0 95.5 17.5t84.5 56t63 109.5t23 168z" />
<glyph unicode="c" horiz-adv-x="944" d="M627 184q128 0 239 80l54 -190q-73 -49 -144 -71.5t-166 -22.5h-4q-118 0 -216 35.5t-171.5 105.5t-114.5 180.5t-41 253.5q0 108 28.5 199t78 155t116.5 108.5t142.5 65.5t157.5 21h8q104 -1 175 -24.5t138 -71.5l-45 -189q-38 27 -107.5 51.5t-133.5 24.5 q-127 0 -206 -86.5t-79 -263.5q0 -185 77 -273t214 -88z" />
<glyph unicode="d" horiz-adv-x="1239" d="M862 0l-6 150q-90 -170 -303 -170h-14q-150 3 -258 78.5t-161.5 201.5t-53.5 287q0 113 32 213.5t91.5 177t152 121.5t205.5 45q123 0 199 -46.5t110 -115.5v555h283v-1497h-277zM602 188q53 0 96.5 17t81 55t59 109t21.5 170q0 97 -22 169t-60 111t-81.5 57.5 t-94.5 18.5q-40 0 -75.5 -9.5t-71 -34t-61 -63.5t-41 -103t-15.5 -146q0 -97 23 -168t62 -109.5t83.5 -56t95.5 -17.5z" />
<glyph unicode="e" horiz-adv-x="1107" d="M344 627h455v10q0 128 -54.5 193t-156.5 65q-38 0 -75.5 -12.5t-75 -41t-63 -83.5t-30.5 -131zM1055 475h-713q4 -144 81.5 -217.5t217.5 -73.5q91 0 171.5 27.5t133.5 67.5l78 -175q-158 -124 -393 -124q-273 0 -420.5 150t-147.5 411q0 158 60.5 284.5t180.5 202.5 t280 76q118 0 210 -44t148.5 -120t85.5 -172t29 -205v-4q0 -13 -1 -39.5t-1 -40.5v-4z" />
<glyph unicode="f" horiz-adv-x="694" d="M178 1096q0 52 1.5 90t6.5 80.5t14 72.5t24 61t37 52t52.5 40t70 30t90.5 17.5t114 6.5h94l25 -211h-93q-92 0 -122.5 -40.5t-30.5 -143.5v-88h237v-168h-237v-895h-283v895h-172v168h172v33z" />
<glyph unicode="g" horiz-adv-x="1249" d="M608 207h8q116 0 189.5 92t73.5 248q0 159 -74 252.5t-189 95.5h-6q-131 0 -200.5 -92.5t-69.5 -255.5q0 -150 75.5 -245t192.5 -95zM494 -487h-138l-20 219h113q64 0 95 0.5t79 3t69.5 8.5t54 16.5t46 27.5t32 40.5t25 56.5t11.5 75.5t5 96.5v86q-47 -67 -116 -105 t-187 -38q-102 0 -192 37.5t-157.5 106t-106.5 173.5t-39 232q0 133 42 241.5t110.5 175.5t153 102.5t173.5 35.5h2q216 0 317 -146v105h283v-997q0 -149 -31 -249.5t-106 -170.5t-201.5 -101.5t-316.5 -31.5z" />
<glyph unicode="h" horiz-adv-x="1198" d="M385 0h-285v1497h285v-551q154 158 342 158q79 0 144.5 -24.5t119.5 -76.5t84.5 -143t30.5 -213v-647h-285v639q0 130 -33.5 193t-125.5 63q-83 0 -158 -53t-119 -127v-715z" />
<glyph unicode="i" horiz-adv-x="526" d="M410 1063v-1063h-283v1063h283zM412 1479v-234h-285v234h285z" />
<glyph unicode="j" horiz-adv-x="552" d="M451 1063v-981q0 -74 -4 -128.5t-15.5 -107.5t-31.5 -89.5t-51.5 -68.5t-76.5 -50t-106.5 -28.5t-140.5 -10.5h-62l-29 208h60q47 0 77.5 6.5t50.5 19.5t29.5 39.5t13 59t3.5 86.5v1045h283zM451 1479v-234h-283v234h283z" />
<glyph unicode="k" horiz-adv-x="1107" d="M100 1497h285v-838l397 404h338l-424 -436l471 -627h-346l-362 518l-74 -55v-463h-285v1497z" />
<glyph unicode="l" horiz-adv-x="655" d="M401 1497v-1081q0 -68 4.5 -103.5t21.5 -64.5t50 -39t90 -10q23 0 38 1t19 2l3 1l12 -203q-55 -12 -147 -12q-94 0 -162 23.5t-108.5 62t-64 100.5t-31 127t-7.5 154v1024z" />
<glyph unicode="m" horiz-adv-x="1835" d="M385 727v-727h-283v1063h240l23 -141q61 78 155 128.5t205 53.5h12q204 0 275 -180q152 180 370 180h13q95 0 164.5 -34t109 -97t58 -142.5t18.5 -179.5v-651h-283v592q0 169 -26.5 236t-114.5 67h-6q-90 -3 -147.5 -49t-98.5 -121v-725h-283v610q0 54 -3 92.5t-12.5 77 t-26.5 62.5t-46.5 38.5t-70.5 14.5q-144 0 -242 -168z" />
<glyph unicode="n" horiz-adv-x="1196" d="M821 621q0 44 -1.5 72t-6.5 63.5t-17 57.5t-30.5 42t-49 29.5t-71.5 9.5q-75 0 -150 -51t-110 -119v-725h-285v1063h238l22 -141q69 81 166.5 132t210.5 50q186 -3 277.5 -126.5t91.5 -330.5v-647h-285v621z" />
<glyph unicode="o" horiz-adv-x="1175" d="M588 1104q252 0 388 -154.5t136 -410.5q0 -251 -136 -405t-388 -154t-388.5 154t-136.5 405q0 167 58 293t178 199t289 73zM588 186q117 0 185.5 91.5t68.5 261.5q0 174 -69 265t-185 91t-184 -91t-68 -265q0 -170 68 -261.5t184 -91.5z" />
<glyph unicode="p" horiz-adv-x="1243" d="M360 1063l21 -141q85 182 315 182q118 0 212.5 -48t152.5 -127.5t88.5 -177.5t30.5 -204q0 -115 -31 -216.5t-89 -179.5t-149 -124t-204 -47h-7q-217 0 -313 151v-512l-283 -29v1473h256zM653 188q50 0 93.5 18.5t80.5 57.5t58.5 109.5t21.5 165.5q0 102 -22.5 175 t-62 110.5t-83 54t-94.5 16.5t-95 -18.5t-82 -57.5t-60.5 -111t-22.5 -169q0 -99 22.5 -170t61.5 -109t84.5 -55t99.5 -17z" />
<glyph unicode="q" horiz-adv-x="1239" d="M883 1063h256v-1442l-283 -31v560q-54 -86 -125.5 -128t-193.5 -42q-113 1 -203.5 46.5t-148.5 124t-88.5 180t-30.5 216.5q0 106 30 204t87.5 177.5t151.5 127.5t212 48q230 0 315 -182zM602 188q53 0 96.5 17t81 55t59 109t21.5 170q0 97 -22 169t-60 111t-81.5 57.5 t-94.5 18.5q-40 0 -75.5 -9.5t-71 -34t-61 -63.5t-41 -103t-15.5 -146q0 -97 23 -168t62 -109.5t83.5 -56t95.5 -17.5z" />
<glyph unicode="r" horiz-adv-x="667" d="M655 1063h29l14 -215h-75q-73 0 -121.5 -18t-73 -55t-34 -81t-9.5 -108v-586h-283v1063h263l20 -145q54 75 114.5 110t155.5 35z" />
<glyph unicode="s" horiz-adv-x="909" d="M819 1018l-49 -184q-52 28 -137.5 46.5t-149.5 18.5q-85 0 -124 -21.5t-42 -66.5q-3 -52 21.5 -75t99.5 -50l164 -57q113 -39 188.5 -115.5t75.5 -189.5q0 -69 -22.5 -129.5t-66 -108.5t-115 -76t-162.5 -28q-298 0 -447 106l56 184q62 -40 166.5 -64t189.5 -24 q64 0 103.5 26.5t39.5 82.5q0 45 -21 68.5t-83 46.5l-160 59q-63 23 -109 48.5t-86 62t-60.5 86.5t-20.5 114q0 160 107 243t286 83q233 0 358 -86z" />
<glyph unicode="t" horiz-adv-x="772" d="M438 893v-453q0 -51 1.5 -80.5t7 -60t16 -46t29 -28.5t46 -17.5t66.5 -4.5l90 6l17 -209q-105 -12 -160 -12q-98 0 -167.5 19.5t-114 55t-69.5 95.5t-34.5 130t-9.5 169v436h-185l17 170h168l69 387h213v-387h262v-170h-262z" />
<glyph unicode="u" horiz-adv-x="1153" d="M92 385v678h283v-674q0 -108 51 -155.5t149 -47.5q99 0 151 47.5t52 155.5v674h285v-678q0 -199 -131.5 -302t-356.5 -103q-224 0 -353.5 101.5t-129.5 303.5z" />
<glyph unicode="v" horiz-adv-x="1105" d="M584 297l227 766h293l-391 -1063h-264l-447 1063h297z" />
<glyph unicode="w" horiz-adv-x="1693" d="M1186 385l223 678h281l-387 -1063h-236l-223 766l-271 -766h-233l-338 1063h283l190 -682l252 682h246z" />
<glyph unicode="x" horiz-adv-x="1161" d="M1139 0h-318l-233 377l-254 -377h-307l372 539l-352 524h309l232 -367l246 367h292l-360 -520z" />
<glyph unicode="y" horiz-adv-x="1077" d="M104 -207h27q75 0 105.5 3.5t68 26.5t59 71.5t48.5 140.5l-428 1028h284l281 -709l242 709h292l-436 -1135q-40 -104 -82.5 -169.5t-98 -103t-118.5 -51.5t-153 -14h-138l-26 203h73z" />
<glyph unicode="z" horiz-adv-x="966" d="M913 188v-188h-847v162l483 721h-459v180h807v-145l-481 -730h497z" />
<glyph unicode="{" horiz-adv-x="788" d="M55 764h95q64 0 83 46t19 155v286q0 158 92 224.5t264 66.5h101v-217h-29q-32 0 -53 -3t-36 -13t-22.5 -20.5t-11.5 -33.5t-5 -43t-1 -59v-240q0 -125 -54 -186t-155 -82q101 -21 155 -82t54 -186v-242q0 -57 2.5 -83t15 -49.5t38.5 -30.5t73 -7h29v-219h-101 q-172 0 -264 67.5t-92 225.5v287q0 108 -19 154t-83 46h-95v238z" />
<glyph unicode="|" horiz-adv-x="362" d="M295 -281h-225v1780h225v-1780z" />
<glyph unicode="}" horiz-adv-x="788" d="M733 526h-94q-64 0 -83 -46t-19 -154v-287q0 -158 -92.5 -225.5t-264.5 -67.5h-100v219h31q47 0 73 7t38.5 30.5t15 49.5t2.5 83v242q0 126 53 187t153 81q-100 20 -153 81t-53 187v240q0 39 -1 59t-5 43t-11.5 33.5t-22.5 20.5t-36 13t-53 3h-31v217h100q84 0 147 -14.5 t111.5 -47.5t73.5 -90.5t25 -138.5v-286q0 -109 19 -155t83 -46h94v-238z" />
<glyph unicode="~" horiz-adv-x="1417" d="M1057 711q1 5 4 15t4 15l174 -55l-6 -24q-13 -55 -37 -102t-60.5 -87.5t-91.5 -64t-122 -23.5q-62 0 -123 21.5t-102.5 47.5t-96 48.5t-104.5 23.5l-2 -2h-2q-59 0 -97 -33.5t-51 -82.5l-6 -37l-166 71l4 23q24 106 106 180t207 74q71 0 141 -23.5t144 -60t107 -47.5 q24 -8 43 -8q50 0 84.5 39t48.5 92z" />
<glyph unicode="&#xa2;" horiz-adv-x="964" d="M561 1446h103v-1643h-103v1643zM647 283q130 0 240 79l53 -190q-73 -49 -143.5 -71.5t-165.5 -22.5h-4q-118 0 -216 35.5t-171.5 105.5t-114.5 180.5t-41 253.5q0 134 43.5 241.5t117.5 173t166 100t195 34.5h8q104 -1 176 -24.5t138 -71.5l-45 -188q-38 27 -107.5 51 t-134.5 24q-127 0 -206 -86.5t-79 -263.5q0 -185 77 -272.5t214 -87.5z" />
<glyph unicode="&#xa3;" horiz-adv-x="1114" d="M473 504q0 -181 -67 -295h659v-209h-987l-33 168l23 8q87 36 121 93t34 175v187h-184v190h184v84q0 104 13.5 187.5t46.5 157.5t86 124t135.5 78.5t191.5 28.5q245 0 375 -187l12 -18l-127 -141q-35 35 -54.5 52t-53 40t-70.5 33t-82 10q-225 0 -225 -283v-164h381v-192 h-379v-127z" />
<glyph unicode="&#xa5;" horiz-adv-x="1222" d="M1118 737v-162h-973v162h973zM1118 449v-162h-973v162h973zM-37 1446h309l353 -604l348 604h305l-502 -860v-586h-297v586z" />
<glyph unicode="&#xa8;" horiz-adv-x="765" d="M696 1497v-266h-209v266h209zM270 1497v-266h-207v266h207z" />
<glyph unicode="&#xa9;" horiz-adv-x="1671" d="M817 250q-192 0 -318 135t-126 344q0 133 55 244.5t156.5 177.5t228.5 66q180 0 299 -80l-43 -113q-121 68 -246 68q-139 0 -221 -106t-82 -259q0 -96 32 -173t102.5 -126t170.5 -49q125 0 244 67l43 -116q-119 -80 -295 -80zM197 727q0 -175 85.5 -323.5t233 -235 t322.5 -86.5t322 86.5t232 235t85 323.5t-85 324t-232 236t-322 87t-322.5 -87t-233 -236t-85.5 -324zM80 727q0 154 60 293.5t161 240t241.5 159.5t295.5 59q205 0 378.5 -100t275 -273.5t101.5 -378.5q0 -154 -60 -292.5t-161 -238t-240.5 -158t-293.5 -58.5 q-155 0 -295 58.5t-241.5 158t-161.5 238t-60 292.5z" />
<glyph unicode="&#xab;" horiz-adv-x="931" d="M317 924h230l-277 -377l267 -377h-226l-278 377zM676 924h223l-270 -377l262 -377h-221l-281 377z" />
<glyph unicode="&#xad;" horiz-adv-x="696" d="M629 432h-559v195h559v-195z" />
<glyph unicode="&#xae;" horiz-adv-x="1671" d="M682 803h117q55 0 90.5 5t66.5 20t45.5 45t14.5 77q0 24 -3.5 43t-12.5 33t-17.5 23.5t-26.5 16t-31.5 10t-40 5t-44.5 2t-52 0.5h-106v-280zM1163 950q0 -112 -44.5 -170t-151.5 -86q74 -112 241 -434h-170l-123 232l-94 186h-137v-418h-154v948h310q323 0 323 -258z M80 727q0 154 60 293.5t161 240t241.5 159.5t295.5 59q205 0 378.5 -100t275 -273.5t101.5 -378.5q0 -154 -60 -292.5t-161 -238t-240.5 -158t-293.5 -58.5q-155 0 -295 58.5t-241.5 158t-161.5 238t-60 292.5zM197 727q0 -175 85.5 -323.5t233 -235t322.5 -86.5t322 86.5 t232 235t85 323.5t-85 324t-232 236t-322 87t-322.5 -87t-233 -236t-85.5 -324z" />
<glyph unicode="&#xb4;" horiz-adv-x="610" d="M379 1559h313l-311 -383h-168z" />
<glyph unicode="&#xb8;" horiz-adv-x="585" d="M272 -340h-229l127 367h164z" />
<glyph unicode="&#xbb;" horiz-adv-x="1150" d="M752 170h-226l273 377l-264 377h223l276 -377zM371 170h-226l273 377l-264 377h223l278 -377z" />
<glyph unicode="&#xd3;" horiz-adv-x="1593" d="M1227 723q0 237 -109.5 378.5t-318.5 141.5q-207 0 -315.5 -141.5t-108.5 -378.5q0 -236 108.5 -374t315.5 -138q208 0 318 138.5t110 373.5zM72 727q0 175 55 317.5t152 237t230 146t288 51.5q156 0 289 -51.5t230.5 -146t152.5 -237t55 -317.5q0 -173 -55.5 -315 t-153 -236t-230.5 -145t-288 -51q-208 0 -371 87.5t-258.5 258.5t-95.5 401zM885 1982h313l-311 -383h-168z" />
<glyph unicode="&#xf3;" horiz-adv-x="1175" d="M514 1559h313l-311 -383h-168zM588 1104q252 0 388 -154.5t136 -410.5q0 -251 -136 -405t-388 -154t-388.5 154t-136.5 405q0 167 58 293t178 199t289 73zM588 186q117 0 185.5 91.5t68.5 261.5q0 174 -69 265t-185 91t-184 -91t-68 -265q0 -170 68 -261.5t184 -91.5z " />
<glyph unicode="&#x100;" horiz-adv-x="1298" d="M1028 0l-158 444h-428l-157 -444h-295l39 121l487 1325h281l473 -1325l41 -121h-283zM506 627h295l-144 489zM342 1767h678v-161h-678v161z" />
<glyph unicode="&#x101;" horiz-adv-x="1069" d="M723 115q-79 -67 -152 -101t-168 -34q-151 0 -243 82.5t-92 222.5q0 50 8 91t27.5 73t42 56.5t61.5 44t75 33t94 26t107.5 21t124.5 19.5l76 13v49q0 53 -4 81.5t-19.5 54t-47 36t-85.5 12.5h-14q-113 0 -330 -74l-55 203q162 74 410 80h24q189 0 297.5 -88.5 t108.5 -257.5v-758h-217zM453 162q46 0 88.5 13t69 28t73.5 47v252l-76 -13q-41 -6 -66.5 -10.5t-59 -12.5t-54 -17t-43 -23.5t-35 -32t-20.5 -42.5t-8 -56q0 -61 33.5 -97t97.5 -36zM215 1393h678v-162h-678v162z" />
<glyph unicode="&#x102;" horiz-adv-x="1298" d="M1028 0l-158 444h-428l-157 -444h-295l39 121l487 1325h281l473 -1325l41 -121h-283zM506 627h295l-144 489zM561 1847v-26q0 -24 30 -39t87 -15t87 15t30 39v26h184v-28q0 -103 -86.5 -161.5t-214.5 -58.5q-127 0 -213 59t-86 161v28h182z" />
<glyph unicode="&#x103;" horiz-adv-x="1069" d="M723 115q-79 -67 -152 -101t-168 -34q-151 0 -243 82.5t-92 222.5q0 50 8 91t27.5 73t42 56.5t61.5 44t75 33t94 26t107.5 21t124.5 19.5l76 13v49q0 53 -4 81.5t-19.5 54t-47 36t-85.5 12.5h-14q-113 0 -330 -74l-55 203q162 74 410 80h24q189 0 297.5 -88.5 t108.5 -257.5v-758h-217zM453 162q46 0 88.5 13t69 28t73.5 47v252l-76 -13q-41 -6 -66.5 -10.5t-59 -12.5t-54 -17t-43 -23.5t-35 -32t-20.5 -42.5t-8 -56q0 -61 33.5 -97t97.5 -36zM432 1473v-27q0 -24 30 -38.5t87 -14.5t87 14.5t30 38.5v27h184v-29q0 -103 -86.5 -161 t-214.5 -58q-127 0 -213 58.5t-86 160.5v29h182z" />
<glyph unicode="&#x104;" horiz-adv-x="1298" d="M1028 0l-158 444h-428l-157 -444h-295l39 121l487 1325h281l473 -1325l41 -121h-283zM506 627h295l-144 489zM1362 -352q-95 -39 -199 -39q-91 0 -150 40t-59 118q0 44 18 82.5t51 67.5t59.5 46.5t62.5 36.5h102q-102 -68 -102 -168q0 -28 21.5 -52t58.5 -24q27 0 61.5 9 t55.5 17l20 9v-143z" />
<glyph unicode="&#x105;" horiz-adv-x="1069" d="M723 115q-79 -67 -152 -101t-168 -34q-151 0 -243 82.5t-92 222.5q0 50 8 91t27.5 73t42 56.5t61.5 44t75 33t94 26t107.5 21t124.5 19.5l76 13v49q0 53 -4 81.5t-19.5 54t-47 36t-85.5 12.5h-14q-113 0 -330 -74l-55 203q162 74 410 80h24q189 0 297.5 -88.5 t108.5 -257.5v-758h-217zM453 162q46 0 88.5 13t69 28t73.5 47v252l-76 -13q-41 -6 -66.5 -10.5t-59 -12.5t-54 -17t-43 -23.5t-35 -32t-20.5 -42.5t-8 -56q0 -61 33.5 -97t97.5 -36zM975 -352q-95 -39 -199 -39q-91 0 -150 40t-59 118q0 44 18 82.5t51 67.5t59.5 46.5 t62.5 36.5h102q-102 -68 -102 -168q0 -28 21.5 -52t58.5 -24q27 0 61.5 9t54.5 17l21 9v-143z" />
<glyph unicode="&#x106;" horiz-adv-x="1275" d="M1233 106q-104 -75 -210 -100.5t-232 -25.5q-147 0 -276.5 51t-228.5 144.5t-156.5 237.5t-57.5 320q0 169 55.5 310t152 236t229 147.5t284.5 52.5q279 0 438 -142l-78 -211q-70 59 -147 88t-197 29q-193 0 -313.5 -139t-120.5 -373q0 -251 118.5 -385.5t313.5 -134.5 q210 0 352 108zM885 1982h313l-311 -383h-168z" />
<glyph unicode="&#x107;" horiz-adv-x="944" d="M399 1559h314l-312 -383h-168zM627 184q128 0 239 80l54 -190q-73 -49 -144 -71.5t-166 -22.5h-4q-118 0 -216 35.5t-171.5 105.5t-114.5 180.5t-41 253.5q0 108 28.5 199t78 155t116.5 108.5t142.5 65.5t157.5 21h8q104 -1 175 -24.5t138 -71.5l-45 -189 q-38 27 -107.5 51.5t-133.5 24.5q-127 0 -206 -86.5t-79 -263.5q0 -185 77 -273t214 -88z" />
<glyph unicode="&#x108;" horiz-adv-x="1275" d="M1233 106q-104 -75 -210 -100.5t-232 -25.5q-147 0 -276.5 51t-228.5 144.5t-156.5 237.5t-57.5 320q0 169 55.5 310t152 236t229 147.5t284.5 52.5q279 0 438 -142l-78 -211q-70 59 -147 88t-197 29q-193 0 -313.5 -139t-120.5 -373q0 -251 118.5 -385.5t313.5 -134.5 q210 0 352 108zM477 1579h-188l264 383h199l264 -383h-195l-172 201z" />
<glyph unicode="&#x109;" horiz-adv-x="944" d="M627 184q128 0 239 80l54 -190q-73 -49 -144 -71.5t-166 -22.5h-4q-118 0 -216 35.5t-171.5 105.5t-114.5 180.5t-41 253.5q0 108 28.5 199t78 155t116.5 108.5t142.5 65.5t157.5 21h8q104 -1 175 -24.5t138 -71.5l-45 -189q-38 27 -107.5 51.5t-133.5 24.5 q-127 0 -206 -86.5t-79 -263.5q0 -185 77 -273t214 -88zM317 1204h-188l264 383h199l264 -383h-194l-173 201z" />
<glyph unicode="&#x10a;" horiz-adv-x="1275" d="M1233 106q-104 -75 -210 -100.5t-232 -25.5q-147 0 -276.5 51t-228.5 144.5t-156.5 237.5t-57.5 320q0 169 55.5 310t152 236t229 147.5t284.5 52.5q279 0 438 -142l-78 -211q-70 59 -147 88t-197 29q-193 0 -313.5 -139t-120.5 -373q0 -251 118.5 -385.5t313.5 -134.5 q210 0 352 108zM758 1804v-223h-211v223h211z" />
<glyph unicode="&#x10b;" horiz-adv-x="944" d="M627 184q128 0 239 80l54 -190q-73 -49 -144 -71.5t-166 -22.5h-4q-118 0 -216 35.5t-171.5 105.5t-114.5 180.5t-41 253.5q0 108 28.5 199t78 155t116.5 108.5t142.5 65.5t157.5 21h8q104 -1 175 -24.5t138 -71.5l-45 -189q-38 27 -107.5 51.5t-133.5 24.5 q-127 0 -206 -86.5t-79 -263.5q0 -185 77 -273t214 -88zM598 1427v-223h-211v223h211z" />
<glyph unicode="&#x10c;" horiz-adv-x="1275" d="M1233 106q-104 -75 -210 -100.5t-232 -25.5q-147 0 -276.5 51t-228.5 144.5t-156.5 237.5t-57.5 320q0 169 55.5 310t152 236t229 147.5t284.5 52.5q279 0 438 -142l-78 -211q-70 59 -147 88t-197 29q-193 0 -313.5 -139t-120.5 -373q0 -251 118.5 -385.5t313.5 -134.5 q210 0 352 108zM686 1599l-278 343h213l155 -158l160 158h221l-278 -343h-193z" />
<glyph unicode="&#x10d;" horiz-adv-x="944" d="M627 184q128 0 239 80l54 -190q-73 -49 -144 -71.5t-166 -22.5h-4q-118 0 -216 35.5t-171.5 105.5t-114.5 180.5t-41 253.5q0 108 28.5 199t78 155t116.5 108.5t142.5 65.5t157.5 21h8q104 -1 175 -24.5t138 -71.5l-45 -189q-38 27 -107.5 51.5t-133.5 24.5 q-127 0 -206 -86.5t-79 -263.5q0 -185 77 -273t214 -88zM471 1225l-278 342h213l155 -158l160 158h221l-278 -342h-193z" />
<glyph unicode="&#x10e;" horiz-adv-x="1495" d="M1423 719q0 -231 -105 -394.5t-288 -244t-428 -80.5h-481v1446h391q167 0 304 -24.5t251 -79t192 -138.5t121 -206.5t43 -278.5zM1126 715q0 142 -36 239.5t-112 156.5t-183.5 84.5t-259.5 25.5h-115v-998h201q244 0 374.5 127t130.5 365zM676 1579l-279 342h213 l156 -158l160 158h221l-279 -342h-192z" />
<glyph unicode="&#x10f;" horiz-adv-x="1239" d="M862 0l-6 150q-90 -170 -303 -170h-14q-150 3 -258 78.5t-161.5 201.5t-53.5 287q0 113 32 213.5t91.5 177t152 121.5t205.5 45q123 0 199 -46.5t110 -115.5v555h283v-1497h-277zM602 188q53 0 96.5 17t81 55t59 109t21.5 170q0 97 -22 169t-60 111t-81.5 57.5 t-94.5 18.5q-40 0 -75.5 -9.5t-71 -34t-61 -63.5t-41 -103t-15.5 -146q0 -97 23 -168t62 -109.5t83.5 -56t95.5 -17.5zM1407 1497h240l-174 -528h-181z" />
<glyph unicode="&#x110;" />
<glyph unicode="&#x112;" horiz-adv-x="1128" d="M1063 1446l-25 -219h-618v-359h596v-217h-596v-432l672 -8l-13 -211h-958v1446h942zM211 1767h678v-161h-678v161z" />
<glyph unicode="&#x113;" horiz-adv-x="1107" d="M344 627h455v10q0 128 -54.5 193t-156.5 65q-38 0 -75.5 -12.5t-75 -41t-63 -83.5t-30.5 -131zM1055 475h-713q4 -144 81.5 -217.5t217.5 -73.5q91 0 171.5 27.5t133.5 67.5l78 -175q-158 -124 -393 -124q-273 0 -420.5 150t-147.5 411q0 158 60.5 284.5t180.5 202.5 t280 76q118 0 210 -44t148.5 -120t85.5 -172t29 -205v-4q0 -13 -1 -39.5t-1 -40.5v-4zM252 1393h678v-162h-678v162z" />
<glyph unicode="&#x114;" horiz-adv-x="1128" d="M1063 1446l-25 -219h-618v-359h596v-217h-596v-432l672 -8l-13 -211h-958v1446h942zM489 1829v-27q0 -24 30 -38.5t87 -14.5t87 14.5t30 38.5v27h184v-29q0 -103 -86.5 -161t-214.5 -58q-127 0 -213 58.5t-86 160.5v29h182z" />
<glyph unicode="&#x115;" horiz-adv-x="1107" d="M344 627h455v10q0 128 -54.5 193t-156.5 65q-38 0 -75.5 -12.5t-75 -41t-63 -83.5t-30.5 -131zM1055 475h-713q4 -144 81.5 -217.5t217.5 -73.5q91 0 171.5 27.5t133.5 67.5l78 -175q-158 -124 -393 -124q-273 0 -420.5 150t-147.5 411q0 158 60.5 284.5t180.5 202.5 t280 76q118 0 210 -44t148.5 -120t85.5 -172t29 -205v-4q0 -13 -1 -39.5t-1 -40.5v-4zM442 1454v-27q0 -24 30 -38.5t87 -14.5t87 14.5t30 38.5v27h184v-29q0 -103 -86.5 -161t-214.5 -58q-127 0 -213 58.5t-86 160.5v29h182z" />
<glyph unicode="&#x116;" horiz-adv-x="1128" d="M1063 1446l-25 -219h-618v-359h596v-217h-596v-432l672 -8l-13 -211h-958v1446h942zM713 1804v-223h-211v223h211z" />
<glyph unicode="&#x117;" horiz-adv-x="1107" d="M344 627h455v10q0 128 -54.5 193t-156.5 65q-38 0 -75.5 -12.5t-75 -41t-63 -83.5t-30.5 -131zM1055 475h-713q4 -144 81.5 -217.5t217.5 -73.5q91 0 171.5 27.5t133.5 67.5l78 -175q-158 -124 -393 -124q-273 0 -420.5 150t-147.5 411q0 158 60.5 284.5t180.5 202.5 t280 76q118 0 210 -44t148.5 -120t85.5 -172t29 -205v-4q0 -13 -1 -39.5t-1 -40.5v-4zM666 1427v-223h-211v223h211z" />
<glyph unicode="&#x118;" horiz-adv-x="1128" d="M1063 1446l-25 -219h-618v-359h596v-217h-596v-432l672 -8l-13 -211h-958v1446h942zM799 -358q-95 -39 -199 -39q-91 0 -150 39.5t-59 117.5q0 44 18 82.5t51 68t59.5 47t62.5 36.5h102q-102 -68 -102 -168q0 -28 21.5 -52t58.5 -24q27 0 61.5 9t54.5 17l21 9v-143z" />
<glyph unicode="&#x119;" horiz-adv-x="1107" d="M344 627h455v10q0 128 -54.5 193t-156.5 65q-38 0 -75.5 -12.5t-75 -41t-63 -83.5t-30.5 -131zM1055 475h-713q4 -144 81.5 -217.5t217.5 -73.5q91 0 171.5 27.5t133.5 67.5l78 -175q-158 -124 -393 -124q-273 0 -420.5 150t-147.5 411q0 158 60.5 284.5t180.5 202.5 t280 76q118 0 210 -44t148.5 -120t85.5 -172t29 -205v-4q0 -13 -1 -39.5t-1 -40.5v-4zM836 -379q-95 -39 -199 -39q-91 0 -150 40t-59 118q0 44 18 82.5t50.5 67.5t59 46.5t62.5 36.5h103q-103 -69 -103 -168q0 -28 21.5 -51.5t58.5 -23.5q27 0 61.5 8.5t55.5 17.5l21 8 v-143z" />
<glyph unicode="&#x11a;" horiz-adv-x="1128" d="M1063 1446l-25 -219h-618v-359h596v-217h-596v-432l672 -8l-13 -211h-958v1446h942zM510 1579l-279 342h213l156 -158l160 158h221l-279 -342h-192z" />
<glyph unicode="&#x11b;" horiz-adv-x="1107" d="M344 627h455v10q0 128 -54.5 193t-156.5 65q-38 0 -75.5 -12.5t-75 -41t-63 -83.5t-30.5 -131zM1055 475h-713q4 -144 81.5 -217.5t217.5 -73.5q91 0 171.5 27.5t133.5 67.5l78 -175q-158 -124 -393 -124q-273 0 -420.5 150t-147.5 411q0 158 60.5 284.5t180.5 202.5 t280 76q118 0 210 -44t148.5 -120t85.5 -172t29 -205v-4q0 -13 -1 -39.5t-1 -40.5v-4zM465 1204l-279 342h213l156 -157l160 157h221l-279 -342h-192z" />
<glyph unicode="&#x11c;" horiz-adv-x="1429" d="M1057 268v316h-312l13 207h565v-676q-133 -66 -251 -100.5t-265 -34.5q-333 0 -534 204.5t-201 548.5q0 127 31 239.5t93 205.5t149 160t205 104t255 37q301 0 479 -142l-88 -194q-172 100 -377 100q-208 0 -325.5 -130.5t-118.5 -381.5v-8q0 -150 44 -263t141 -181 t237 -68q158 0 260 57zM522 1579h-188l264 383h199l264 -383h-195l-172 201z" />
<glyph unicode="&#x11d;" horiz-adv-x="1249" d="M608 207h8q116 0 189.5 92t73.5 248q0 159 -74 252.5t-189 95.5h-6q-131 0 -200.5 -92.5t-69.5 -255.5q0 -150 75.5 -245t192.5 -95zM494 -487h-138l-20 219h113q64 0 95 0.5t79 3t69.5 8.5t54 16.5t46 27.5t32 40.5t25 56.5t11.5 75.5t5 96.5v86q-47 -67 -116 -105 t-187 -38q-102 0 -192 37.5t-157.5 106t-106.5 173.5t-39 232q0 133 42 241.5t110.5 175.5t153 102.5t173.5 35.5h2q216 0 317 -146v105h283v-997q0 -149 -31 -249.5t-106 -170.5t-201.5 -101.5t-316.5 -31.5zM432 1204h-188l264 383h199l264 -383h-195l-172 201z" />
<glyph unicode="&#x11e;" horiz-adv-x="1429" d="M1057 268v316h-312l13 207h565v-676q-133 -66 -251 -100.5t-265 -34.5q-333 0 -534 204.5t-201 548.5q0 127 31 239.5t93 205.5t149 160t205 104t255 37q301 0 479 -142l-88 -194q-172 100 -377 100q-208 0 -325.5 -130.5t-118.5 -381.5v-8q0 -150 44 -263t141 -181 t237 -68q158 0 260 57zM580 1829v-27q0 -24 29.5 -38.5t86.5 -14.5t87 14.5t30 38.5v27h184v-29q0 -103 -86.5 -161t-214.5 -58q-127 0 -213 58.5t-86 160.5v29h183z" />
<glyph unicode="&#x11f;" horiz-adv-x="1249" d="M608 207h8q116 0 189.5 92t73.5 248q0 159 -74 252.5t-189 95.5h-6q-131 0 -200.5 -92.5t-69.5 -255.5q0 -150 75.5 -245t192.5 -95zM494 -487h-138l-20 219h113q64 0 95 0.5t79 3t69.5 8.5t54 16.5t46 27.5t32 40.5t25 56.5t11.5 75.5t5 96.5v86q-47 -67 -116 -105 t-187 -38q-102 0 -192 37.5t-157.5 106t-106.5 173.5t-39 232q0 133 42 241.5t110.5 175.5t153 102.5t173.5 35.5h2q216 0 317 -146v105h283v-997q0 -149 -31 -249.5t-106 -170.5t-201.5 -101.5t-316.5 -31.5zM492 1454v-27q0 -24 29.5 -38.5t86.5 -14.5t87 14.5t30 38.5v27 h184v-29q0 -103 -86.5 -161t-214.5 -58q-127 0 -213 58.5t-86 160.5v29h183z" />
<glyph unicode="&#x120;" horiz-adv-x="1429" d="M1057 268v316h-312l13 207h565v-676q-133 -66 -251 -100.5t-265 -34.5q-333 0 -534 204.5t-201 548.5q0 127 31 239.5t93 205.5t149 160t205 104t255 37q301 0 479 -142l-88 -194q-172 100 -377 100q-208 0 -325.5 -130.5t-118.5 -381.5v-8q0 -150 44 -263t141 -181 t237 -68q158 0 260 57zM803 1804v-223h-211v223h211z" />
<glyph unicode="&#x121;" horiz-adv-x="1249" d="M608 207h8q116 0 189.5 92t73.5 248q0 159 -74 252.5t-189 95.5h-6q-131 0 -200.5 -92.5t-69.5 -255.5q0 -150 75.5 -245t192.5 -95zM494 -487h-138l-20 219h113q64 0 95 0.5t79 3t69.5 8.5t54 16.5t46 27.5t32 40.5t25 56.5t11.5 75.5t5 96.5v86q-47 -67 -116 -105 t-187 -38q-102 0 -192 37.5t-157.5 106t-106.5 173.5t-39 232q0 133 42 241.5t110.5 175.5t153 102.5t173.5 35.5h2q216 0 317 -146v105h283v-997q0 -149 -31 -249.5t-106 -170.5t-201.5 -101.5t-316.5 -31.5zM715 1427v-223h-211v223h211z" />
<glyph unicode="&#x122;" horiz-adv-x="1429" d="M1057 268v316h-312l13 207h565v-676q-133 -66 -251 -100.5t-265 -34.5q-333 0 -534 204.5t-201 548.5q0 127 31 239.5t93 205.5t149 160t205 104t255 37q301 0 479 -142l-88 -194q-172 100 -377 100q-208 0 -325.5 -130.5t-118.5 -381.5v-8q0 -150 44 -263t141 -181 t237 -68q158 0 260 57zM799 -666h-185l115 525h244z" />
<glyph unicode="&#x123;" horiz-adv-x="1294" d="M893 129q-67 -59 -142 -91t-173 -32q-129 0 -232 48t-166 127.5t-96 177.5t-33 204q0 95 32.5 188t93.5 172t160 128t220 49q189 0 315 -129l17 -19v119h260v-934q0 -295 -156 -427t-481 -132h-172v215h176h29q178 0 264 69t86 224q0 7 -1 21.5t-1 21.5zM600 897 q-56 0 -107.5 -21.5t-94 -62t-68 -106t-25.5 -146.5t25.5 -146.5t68 -106t95 -62t108.5 -21.5q118 0 204.5 88t86.5 248q0 159 -87.5 247.5t-205.5 88.5zM768 1722l-109 -522h-229l166 522h172z" />
<glyph unicode="&#x124;" horiz-adv-x="1472" d="M1055 1446h299v-1446h-299v645h-635v-645h-299v1446h299v-592h635v592zM561 1579h-188l264 383h199l264 -383h-195l-172 201z" />
<glyph unicode="&#x125;" horiz-adv-x="1198" d="M385 0h-285v1497h285v-551q154 158 342 158q79 0 144.5 -24.5t119.5 -76.5t84.5 -143t30.5 -213v-647h-285v639q0 130 -33.5 193t-125.5 63q-83 0 -158 -53t-119 -127v-715zM428 1599h-188l264 383h198l265 -383h-195l-172 201z" />
<glyph unicode="&#x127;" horiz-adv-x="1214" d="M705 868q-101 0 -183.5 -57t-107.5 -131v-655h-244v1103h-158v195h158v170h244v-170h192v-195h-192v-190l16 12q124 103 307 103q199 0 294 -117t95 -315v-596h-241v514q0 58 -1.5 93t-7 78t-17 67.5t-31 47.5t-50.5 33t-73 10z" />
<glyph unicode="&#x128;" horiz-adv-x="565" d="M432 1446v-1446h-299v1446h299zM373 1767q47 0 47 80h160q0 -30 -1 -47.5t-5 -51.5t-15 -55.5t-28.5 -44.5t-48 -34.5t-70.5 -11.5q-49 0 -123.5 22t-133 44t-69.5 22q-25 0 -36 -20.5t-11 -67.5h-156q0 27 0.5 42t3.5 44.5t9 47.5t18.5 41.5t30 37t44.5 23t62 9.5 q58 0 126.5 -20t121.5 -40t74 -20z" />
<glyph unicode="&#x129;" horiz-adv-x="585" d="M410 1063v-1063h-283v1063h283zM475 1393q47 0 47 80h160q0 -25 -0.5 -40t-3.5 -44t-9 -48t-18.5 -42.5t-29.5 -37.5t-44.5 -24t-62.5 -10q-49 0 -123.5 22t-133 44t-69.5 22q-25 0 -36 -20.5t-11 -67.5h-155q0 27 0.5 42t3.5 44.5t9 48t18.5 42t30 37t44.5 23t62 9.5 q58 0 126 -20t121 -40t74 -20z" />
<glyph unicode="&#x12a;" horiz-adv-x="565" d="M432 1446v-1446h-299v1446h299zM-111 1767h678v-161h-678v161z" />
<glyph unicode="&#x12b;" horiz-adv-x="585" d="M410 1063v-1063h-283v1063h283zM-8 1393h678v-162h-678v162z" />
<glyph unicode="&#x12c;" horiz-adv-x="565" d="M432 1446v-1446h-299v1446h299zM166 1829v-27q0 -24 30 -38.5t87 -14.5t86.5 14.5t29.5 38.5v27h185v-29q0 -103 -86.5 -161t-214.5 -58q-127 0 -213 58.5t-86 160.5v29h182z" />
<glyph unicode="&#x12d;" horiz-adv-x="585" d="M410 1063v-1063h-283v1063h283zM209 1454v-27q0 -24 30 -38.5t87 -14.5t86.5 14.5t29.5 38.5v27h185v-29q0 -103 -86.5 -161t-214.5 -58q-127 0 -213 58.5t-86 160.5v29h182z" />
<glyph unicode="&#x12e;" horiz-adv-x="565" d="M432 1446v-1446h-299v1446h299zM471 -358q-95 -39 -199 -39q-91 0 -150 39.5t-59 117.5q0 44 18 82.5t51 68t59.5 47t62.5 36.5h102q-102 -68 -102 -168q0 -28 21.5 -52t58.5 -24q27 0 61.5 9t54.5 17l21 9v-143z" />
<glyph unicode="&#x12f;" horiz-adv-x="526" d="M410 1063v-1063h-283v1063h283zM412 1479v-234h-285v234h285zM451 -358q-95 -39 -199 -39q-91 0 -150 39.5t-59 117.5q0 44 18 82.5t50.5 68t59.5 47t62 36.5h103q-103 -69 -103 -168q0 -28 21.5 -52t58.5 -24q27 0 61.5 9t55.5 17l21 9v-143z" />
<glyph unicode="&#x130;" horiz-adv-x="565" d="M432 1446v-1446h-299v1446h299zM389 1804v-223h-211v223h211z" />
<glyph unicode="&#x131;" horiz-adv-x="585" d="M410 1063v-1063h-283v1063h283z" />
<glyph unicode="&#x132;" horiz-adv-x="1492" d="M444 1440v-1426h-249v1426h249zM836 182l73 2q104 3 136 44t32 161v1041l252 2v-994q0 -125 -20.5 -208t-70.5 -140t-133.5 -82.5t-211.5 -25.5h-57v200z" />
<glyph unicode="&#x133;" horiz-adv-x="1040" d="M397 1044v-1030h-243v1030h243zM397 1450v-244h-243v244h243zM879 188q0 -83 -2.5 -127.5t-16.5 -102t-43 -97.5q-49 -67 -131.5 -96.5t-212.5 -45.5l-35 -4l-2 215l29 4q59 6 90 15.5t50 34t23.5 58t4.5 99.5v895h246v-848zM879 1450v-244h-246v244h246z" />
<glyph unicode="&#x134;" horiz-adv-x="634" d="M-45 -88h82q111 0 145.5 46t34.5 171v1317h297v-1307q0 -100 -14.5 -170.5t-48 -124.5t-92 -85t-141.5 -46.5t-200 -15.5h-47zM276 1599h-188l264 383h199l264 -383h-194l-172 201z" />
<glyph unicode="&#x135;" horiz-adv-x="546" d="M98 1133h-188l264 383h199l264 -383h-195l-172 200zM430 1051v-885q0 -102 -11 -174.5t-39 -134t-76 -98t-122 -56.5t-178 -20h-35v213h29q59 0 92 8.5t51.5 35t23.5 62.5t5 104v945h260z" />
<glyph unicode="&#x136;" horiz-adv-x="1306" d="M420 582v-582h-299v1446h299v-602l504 602h354l-549 -660l608 -786h-346l-495 657zM735 -627h-184l115 525h243z" />
<glyph unicode="&#x137;" horiz-adv-x="1107" d="M100 1497h285v-838l397 404h338l-424 -436l471 -627h-346l-362 518l-74 -55v-463h-285v1497zM604 -645h-184l115 524h243z" />
<glyph unicode="&#x138;" horiz-adv-x="1136" d="M868 14l-473 432v-432h-217v1037h217v-426l426 426h303l-553 -519q366 -311 537 -466l55 -52h-295z" />
<glyph unicode="&#x139;" horiz-adv-x="1003" d="M420 217h588l-17 -217h-870v1446h299v-1229zM647 1962h314l-312 -383h-168z" />
<glyph unicode="&#x13a;" horiz-adv-x="655" d="M401 1497v-1081q0 -68 4.5 -103.5t21.5 -64.5t50 -39t90 -10q23 0 38 1t19 2l3 1l12 -203q-55 -12 -147 -12q-94 0 -162 23.5t-108.5 62t-64 100.5t-31 127t-7.5 154v1024zM463 1982h313l-311 -383h-168z" />
<glyph unicode="&#x13b;" horiz-adv-x="1003" d="M420 217h588l-17 -217h-870v1446h299v-1229zM569 -627h-184l115 525h243z" />
<glyph unicode="&#x13c;" horiz-adv-x="655" d="M401 1497v-1081q0 -68 4.5 -103.5t21.5 -64.5t50 -39t90 -10q23 0 38 1t19 2l3 1l12 -203q-55 -12 -147 -12q-94 0 -162 23.5t-108.5 62t-64 100.5t-31 127t-7.5 154v1024zM385 -639h-184l114 524h244z" />
<glyph unicode="&#x13d;" horiz-adv-x="1003" d="M420 217h588l-17 -217h-870v1446h299v-1229zM1276 1477h240l-175 -529h-180z" />
<glyph unicode="&#x13e;" horiz-adv-x="655" d="M401 1497v-1081q0 -68 4.5 -103.5t21.5 -64.5t50 -39t90 -10q23 0 38 1t19 2l3 1l12 -203q-55 -12 -147 -12q-94 0 -162 23.5t-108.5 62t-64 100.5t-31 127t-7.5 154v1024zM909 1497h240l-174 -528h-180z" />
<glyph unicode="&#x13f;" horiz-adv-x="1003" d="M420 217h588l-17 -217h-870v1446h299v-1229zM408 874h266v-270h-266v270z" />
<glyph unicode="&#x140;" horiz-adv-x="655" d="M401 1497v-1081q0 -68 4.5 -103.5t21.5 -64.5t50 -39t90 -10q23 0 38 1t19 2l3 1l12 -203q-55 -12 -147 -12q-94 0 -162 23.5t-108.5 62t-64 100.5t-31 127t-7.5 154v1024zM799 733h266v-270h-266v270z" />
<glyph unicode="&#x141;" horiz-adv-x="1173" d="M725 1079v-194l-279 -168v-488h676v-202h-919v548l-178 -110v197l178 110v688h243v-549z" />
<glyph unicode="&#x142;" horiz-adv-x="557" d="M170 655l-160 -94v197l160 94v643h215v-534l164 100v-195l-164 -94v-747h-215v630z" />
<glyph unicode="&#x143;" horiz-adv-x="1447" d="M1073 0l-680 975v-975h-272v1446h248l686 -975v975h272v-1446h-254zM774 1982h313l-311 -383h-168z" />
<glyph unicode="&#x144;" horiz-adv-x="1196" d="M526 1559h314l-312 -383h-168zM821 621q0 44 -1.5 72t-6.5 63.5t-17 57.5t-30.5 42t-49 29.5t-71.5 9.5q-75 0 -150 -51t-110 -119v-725h-285v1063h238l22 -141q69 81 166.5 132t210.5 50q186 -3 277.5 -126.5t91.5 -330.5v-647h-285v621z" />
<glyph unicode="&#x145;" horiz-adv-x="1447" d="M1073 0l-680 975v-975h-272v1446h248l686 -975v975h272v-1446h-254zM729 -627h-184l114 525h244z" />
<glyph unicode="&#x146;" horiz-adv-x="1196" d="M821 621q0 44 -1.5 72t-6.5 63.5t-17 57.5t-30.5 42t-49 29.5t-71.5 9.5q-75 0 -150 -51t-110 -119v-725h-285v1063h238l22 -141q69 81 166.5 132t210.5 50q186 -3 277.5 -126.5t91.5 -330.5v-647h-285v621zM608 -627h-184l115 525h243z" />
<glyph unicode="&#x147;" horiz-adv-x="1447" d="M1073 0l-680 975v-975h-272v1446h248l686 -975v975h272v-1446h-254zM629 1579l-279 342h213l156 -158l160 158h221l-279 -342h-192z" />
<glyph unicode="&#x148;" horiz-adv-x="1196" d="M821 621q0 44 -1.5 72t-6.5 63.5t-17 57.5t-30.5 42t-49 29.5t-71.5 9.5q-75 0 -150 -51t-110 -119v-725h-285v1063h238l22 -141q69 81 166.5 132t210.5 50q186 -3 277.5 -126.5t91.5 -330.5v-647h-285v621zM508 1204l-279 342h213l156 -157l160 157h221l-279 -342h-192z " />
<glyph unicode="&#x14c;" horiz-adv-x="1593" d="M1100 1825v-197h-602v197h602zM1227 723q0 237 -109.5 378.5t-318.5 141.5q-207 0 -315.5 -141.5t-108.5 -378.5q0 -236 108.5 -374t315.5 -138q208 0 318 138.5t110 373.5zM72 727q0 175 55 317.5t152 237t230 146t288 51.5q156 0 289 -51.5t230.5 -146t152.5 -237 t55 -317.5q0 -173 -55.5 -315t-153 -236t-230.5 -145t-288 -51q-208 0 -371 87.5t-258.5 258.5t-95.5 401z" />
<glyph unicode="&#x14d;" horiz-adv-x="1175" d="M588 1104q252 0 388 -154.5t136 -410.5q0 -251 -136 -405t-388 -154t-388.5 154t-136.5 405q0 167 58 293t178 199t289 73zM588 186q117 0 185.5 91.5t68.5 261.5q0 174 -69 265t-185 91t-184 -91t-68 -265q0 -170 68 -261.5t184 -91.5zM248 1368h678v-162h-678v162z" />
<glyph unicode="&#x14e;" horiz-adv-x="1593" d="M1227 723q0 237 -109.5 378.5t-318.5 141.5q-207 0 -315.5 -141.5t-108.5 -378.5q0 -236 108.5 -374t315.5 -138q208 0 318 138.5t110 373.5zM72 727q0 175 55 317.5t152 237t230 146t288 51.5q156 0 289 -51.5t230.5 -146t152.5 -237t55 -317.5q0 -173 -55.5 -315 t-153 -236t-230.5 -145t-288 -51q-208 0 -371 87.5t-258.5 258.5t-95.5 401zM680 1829v-27q0 -24 30 -38.5t87 -14.5t86.5 14.5t29.5 38.5v27h185v-29q0 -103 -86.5 -161t-214.5 -58q-127 0 -213 58.5t-86 160.5v29h182z" />
<glyph unicode="&#x14f;" horiz-adv-x="1175" d="M588 1104q252 0 388 -154.5t136 -410.5q0 -251 -136 -405t-388 -154t-388.5 154t-136.5 405q0 167 58 293t178 199t289 73zM588 186q117 0 185.5 91.5t68.5 261.5q0 174 -69 265t-185 91t-184 -91t-68 -265q0 -170 68 -261.5t184 -91.5zM471 1454v-27q0 -24 30 -38.5 t87 -14.5t87 14.5t30 38.5v27h184v-29q0 -103 -86.5 -161t-214.5 -58q-127 0 -213 58.5t-86 160.5v29h182z" />
<glyph unicode="&#x150;" horiz-adv-x="1593" d="M1227 723q0 237 -109.5 378.5t-318.5 141.5q-207 0 -315.5 -141.5t-108.5 -378.5q0 -236 108.5 -374t315.5 -138q208 0 318 138.5t110 373.5zM72 727q0 175 55 317.5t152 237t230 146t288 51.5q156 0 289 -51.5t230.5 -146t152.5 -237t55 -317.5q0 -173 -55.5 -315 t-153 -236t-230.5 -145t-288 -51q-208 0 -371 87.5t-258.5 258.5t-95.5 401zM1014 1864l-258 -283h-183l254 371h519l-324 -371h-199l205 270z" />
<glyph unicode="&#x151;" horiz-adv-x="1175" d="M588 1104q252 0 388 -154.5t136 -410.5q0 -251 -136 -405t-388 -154t-388.5 154t-136.5 405q0 167 58 293t178 199t289 73zM588 186q117 0 185.5 91.5t68.5 261.5q0 174 -69 265t-185 91t-184 -91t-68 -265q0 -170 68 -261.5t184 -91.5zM805 1489l-258 -283h-182l253 371 h519l-324 -371h-199l205 271z" />
<glyph unicode="&#x152;" horiz-adv-x="2297" d="M825 1479q194 0 357 -105v76h977l-19 -221h-676v-361h650v-217h-650v-426h725l-18 -221h-989v82q-154 -104 -357 -104q-202 0 -367 96.5t-258.5 267t-93.5 381.5q0 160 55 300t150.5 239t228.5 156t285 57zM1182 1118q-128 135 -357 135q-104 0 -189 -45.5t-137 -121 t-80 -169t-28 -194.5q0 -80 17.5 -155t53 -140.5t86.5 -114.5t122 -77.5t155 -28.5q230 0 357 127v784z" />
<glyph unicode="&#x153;" horiz-adv-x="1847" d="M592 186q114 0 184 87.5t70 261.5q0 179 -70 269.5t-184 90.5q-113 0 -182.5 -92.5t-69.5 -267.5q0 -170 70 -259.5t182 -89.5zM1104 631h428v8q0 256 -203 256q-38 0 -72.5 -12t-68.5 -39.5t-56.5 -82t-27.5 -130.5zM1757 104q-78 -61 -163 -92.5t-210 -31.5 q-298 0 -411 186q-52 -83 -151.5 -134.5t-229.5 -51.5q-131 0 -233 44.5t-164.5 121.5t-94.5 175.5t-32 213.5q0 120 32 222t94.5 180.5t164.5 122.5t233 44q127 0 224 -55t159 -144q53 93 148.5 146t226.5 53q94 0 169.5 -29t125.5 -79t83 -119.5t47.5 -147.5t14.5 -166 l-2 -88h-686q9 -291 289 -291q161 0 288 95z" />
<glyph unicode="&#x154;" horiz-adv-x="1302" d="M1229 1034q0 -288 -258 -383q29 -34 55 -75.5t40 -69t44 -88.5l205 -418h-314l-157 344l-127 250q-19 2 -93.5 3t-139.5 1h-64v-598h-299v1446h557q107 0 187.5 -10.5t151.5 -38t116 -73.5t70.5 -118.5t25.5 -171.5zM952 1030q0 103 -65 151t-195 48h-272v-420h266 q140 0 203 51.5t63 169.5zM408 1982h313l-311 -383h-168z" />
<glyph unicode="&#x155;" horiz-adv-x="667" d="M655 1063h29l14 -215h-75q-73 0 -121.5 -18t-73 -55t-34 -81t-9.5 -108v-586h-283v1063h263l20 -145q54 75 114.5 110t155.5 35zM483 1587h314l-312 -383h-168z" />
<glyph unicode="&#x156;" horiz-adv-x="1302" d="M1229 1034q0 -288 -258 -383q29 -34 55 -75.5t40 -69t44 -88.5l205 -418h-314l-157 344l-127 250q-19 2 -93.5 3t-139.5 1h-64v-598h-299v1446h557q107 0 187.5 -10.5t151.5 -38t116 -73.5t70.5 -118.5t25.5 -171.5zM952 1030q0 103 -65 151t-195 48h-272v-420h266 q140 0 203 51.5t63 169.5zM672 -645h-185l115 524h244z" />
<glyph unicode="&#x157;" horiz-adv-x="667" d="M655 1063h29l14 -215h-75q-73 0 -121.5 -18t-73 -55t-34 -81t-9.5 -108v-586h-283v1063h263l20 -145q54 75 114.5 110t155.5 35zM209 -645h-184l114 524h244z" />
<glyph unicode="&#x158;" horiz-adv-x="1302" d="M1229 1034q0 -288 -258 -383q29 -34 55 -75.5t40 -69t44 -88.5l205 -418h-314l-157 344l-127 250q-19 2 -93.5 3t-139.5 1h-64v-598h-299v1446h557q107 0 187.5 -10.5t151.5 -38t116 -73.5t70.5 -118.5t25.5 -171.5zM952 1030q0 103 -65 151t-195 48h-272v-420h266 q140 0 203 51.5t63 169.5zM209 1599l-279 343h213l156 -158l160 158h221l-279 -343h-192z" />
<glyph unicode="&#x159;" horiz-adv-x="667" d="M240 1174l-279 342h213l156 -158l159 158h222l-279 -342h-192zM655 1063h29l14 -215h-75q-73 0 -121.5 -18t-73 -55t-34 -81t-9.5 -108v-586h-283v1063h263l20 -145q54 75 114.5 110t155.5 35z" />
<glyph unicode="&#x15a;" horiz-adv-x="1191" d="M997 1163q-146 90 -395 90q-229 0 -229 -157q0 -76 38 -114.5t113 -63.5l199 -66q54 -18 91.5 -32.5t85 -37t80.5 -45.5t67 -56t54 -70.5t33 -87t13 -107.5q0 -109 -43 -193t-120 -136.5t-178 -79.5t-222 -27q-328 0 -521 124l78 218q77 -49 199 -81t242 -32 q268 0 268 172q0 39 -12.5 70.5t-30.5 52t-51 40t-60.5 30t-72.5 26.5l-183 62q-61 20 -108.5 41t-97.5 55.5t-83 75.5t-54 101t-21 132q0 133 72 228t189 139.5t265 44.5q313 0 473 -115zM684 1982h313l-311 -383h-168z" />
<glyph unicode="&#x15b;" horiz-adv-x="909" d="M381 1559h313l-311 -383h-168zM819 1018l-49 -184q-52 28 -137.5 46.5t-149.5 18.5q-85 0 -124 -21.5t-42 -66.5q-3 -52 21.5 -75t99.5 -50l164 -57q113 -39 188.5 -115.5t75.5 -189.5q0 -69 -22.5 -129.5t-66 -108.5t-115 -76t-162.5 -28q-298 0 -447 106l56 184 q62 -40 166.5 -64t189.5 -24q64 0 103.5 26.5t39.5 82.5q0 45 -21 68.5t-83 46.5l-160 59q-63 23 -109 48.5t-86 62t-60.5 86.5t-20.5 114q0 160 107 243t286 83q233 0 358 -86z" />
<glyph unicode="&#x15c;" horiz-adv-x="1191" d="M997 1163q-146 90 -395 90q-229 0 -229 -157q0 -76 38 -114.5t113 -63.5l199 -66q54 -18 91.5 -32.5t85 -37t80.5 -45.5t67 -56t54 -70.5t33 -87t13 -107.5q0 -109 -43 -193t-120 -136.5t-178 -79.5t-222 -27q-328 0 -521 124l78 218q77 -49 199 -81t242 -32 q268 0 268 172q0 39 -12.5 70.5t-30.5 52t-51 40t-60.5 30t-72.5 26.5l-183 62q-61 20 -108.5 41t-97.5 55.5t-83 75.5t-54 101t-21 132q0 133 72 228t189 139.5t265 44.5q313 0 473 -115zM430 1579h-188l264 383h199l264 -383h-195l-172 201z" />
<glyph unicode="&#x15d;" horiz-adv-x="909" d="M819 1018l-49 -184q-52 28 -137.5 46.5t-149.5 18.5q-85 0 -124 -21.5t-42 -66.5q-3 -52 21.5 -75t99.5 -50l164 -57q113 -39 188.5 -115.5t75.5 -189.5q0 -69 -22.5 -129.5t-66 -108.5t-115 -76t-162.5 -28q-298 0 -447 106l56 184q62 -40 166.5 -64t189.5 -24 q64 0 103.5 26.5t39.5 82.5q0 45 -21 68.5t-83 46.5l-160 59q-63 23 -109 48.5t-86 62t-60.5 86.5t-20.5 114q0 160 107 243t286 83q233 0 358 -86zM285 1204h-189l264 383h199l264 -383h-194l-172 201z" />
<glyph unicode="&#x15e;" horiz-adv-x="1191" d="M997 1163q-146 90 -395 90q-229 0 -229 -157q0 -76 38 -114.5t113 -63.5l199 -66q54 -18 91.5 -32.5t85 -37t80.5 -45.5t67 -56t54 -70.5t33 -87t13 -107.5q0 -109 -43 -193t-120 -136.5t-178 -79.5t-222 -27q-328 0 -521 124l78 218q77 -49 199 -81t242 -32 q268 0 268 172q0 39 -12.5 70.5t-30.5 52t-51 40t-60.5 30t-72.5 26.5l-183 62q-61 20 -108.5 41t-97.5 55.5t-83 75.5t-54 101t-21 132q0 133 72 228t189 139.5t265 44.5q313 0 473 -115zM625 -375h-230l127 367h164z" />
<glyph unicode="&#x15f;" horiz-adv-x="909" d="M819 1018l-49 -184q-52 28 -137.5 46.5t-149.5 18.5q-85 0 -124 -21.5t-42 -66.5q-3 -52 21.5 -75t99.5 -50l164 -57q113 -39 188.5 -115.5t75.5 -189.5q0 -69 -22.5 -129.5t-66 -108.5t-115 -76t-162.5 -28q-298 0 -447 106l56 184q62 -40 166.5 -64t189.5 -24 q64 0 103.5 26.5t39.5 82.5q0 45 -21 68.5t-83 46.5l-160 59q-63 23 -109 48.5t-86 62t-60.5 86.5t-20.5 114q0 160 107 243t286 83q233 0 358 -86zM479 -373h-229l127 367h164z" />
<glyph unicode="&#x160;" horiz-adv-x="1191" d="M997 1163q-146 90 -395 90q-229 0 -229 -157q0 -76 38 -114.5t113 -63.5l199 -66q54 -18 91.5 -32.5t85 -37t80.5 -45.5t67 -56t54 -70.5t33 -87t13 -107.5q0 -109 -43 -193t-120 -136.5t-178 -79.5t-222 -27q-328 0 -521 124l78 218q77 -49 199 -81t242 -32 q268 0 268 172q0 39 -12.5 70.5t-30.5 52t-51 40t-60.5 30t-72.5 26.5l-183 62q-61 20 -108.5 41t-97.5 55.5t-83 75.5t-54 101t-21 132q0 133 72 228t189 139.5t265 44.5q313 0 473 -115zM485 1599l-278 343h213l155 -158l160 158h221l-278 -343h-193z" />
<glyph unicode="&#x161;" horiz-adv-x="909" d="M358 1174l-278 342h213l156 -158l159 158h221l-278 -342h-193zM819 1018l-49 -184q-52 28 -137.5 46.5t-149.5 18.5q-85 0 -124 -21.5t-42 -66.5q-3 -52 21.5 -75t99.5 -50l164 -57q113 -39 188.5 -115.5t75.5 -189.5q0 -69 -22.5 -129.5t-66 -108.5t-115 -76t-162.5 -28 q-298 0 -447 106l56 184q62 -40 166.5 -64t189.5 -24q64 0 103.5 26.5t39.5 82.5q0 45 -21 68.5t-83 46.5l-160 59q-63 23 -109 48.5t-86 62t-60.5 86.5t-20.5 114q0 160 107 243t286 83q233 0 358 -86z" />
<glyph unicode="&#x164;" horiz-adv-x="1089" d="M692 1227v-1227h-297v1227h-422v219h1143v-219h-424zM449 1579l-279 342h213l156 -158l159 158h222l-279 -342h-192z" />
<glyph unicode="&#x165;" horiz-adv-x="772" d="M438 893v-453q0 -51 1.5 -80.5t7 -60t16 -46t29 -28.5t46 -17.5t66.5 -4.5l90 6l17 -209q-105 -12 -160 -12q-98 0 -167.5 19.5t-114 55t-69.5 95.5t-34.5 130t-9.5 169v436h-185l17 170h168l69 387h213v-387h262v-170h-262zM979 1450h240l-175 -528h-180z" />
<glyph unicode="&#x168;" horiz-adv-x="1388" d="M694 209q161 0 226 80t65 264v893h297v-907q0 -273 -147 -416t-441 -143t-441 143t-147 416v907h300v-893q0 -184 63.5 -264t224.5 -80zM838 1745q47 0 47 80h159q0 -26 -0.5 -40t-3.5 -44t-9 -48t-18 -42t-29.5 -38t-44.5 -24t-62 -10q-49 0 -123.5 22t-133 44t-69.5 22 q-25 0 -36 -20.5t-11 -67.5h-156q0 27 0.5 42t3.5 44.5t9 48t18.5 42t30 37t44.5 23t62 9.5q58 0 126.5 -20t121.5 -40t74 -20z" />
<glyph unicode="&#x169;" horiz-adv-x="1153" d="M92 385v678h283v-674q0 -108 51 -155.5t149 -47.5q99 0 151 47.5t52 155.5v674h285v-678q0 -199 -131.5 -302t-356.5 -103q-224 0 -353.5 101.5t-129.5 303.5zM719 1370q47 0 47 80h160q0 -25 -0.5 -40t-3.5 -44t-9 -48t-18.5 -42.5t-29.5 -37.5t-44.5 -24t-62.5 -10 q-49 0 -123.5 22t-133 44t-69.5 22q-25 0 -36 -20.5t-11 -67.5h-156q0 27 0.5 42t3.5 44.5t9 48t18.5 42t30 37t44.5 23t62 9.5q58 0 126.5 -20t121.5 -40t74 -20z" />
<glyph unicode="&#x16a;" horiz-adv-x="1388" d="M694 209q161 0 226 80t65 264v893h297v-907q0 -273 -147 -416t-441 -143t-441 143t-147 416v907h300v-893q0 -184 63.5 -264t224.5 -80zM356 1743h678v-162h-678v162z" />
<glyph unicode="&#x16b;" horiz-adv-x="1153" d="M92 385v678h283v-674q0 -108 51 -155.5t149 -47.5q99 0 151 47.5t52 155.5v674h285v-678q0 -199 -131.5 -302t-356.5 -103q-224 0 -353.5 101.5t-129.5 303.5zM238 1368h677v-162h-677v162z" />
<glyph unicode="&#x16c;" horiz-adv-x="1388" d="M694 209q161 0 226 80t65 264v893h297v-907q0 -273 -147 -416t-441 -143t-441 143t-147 416v907h300v-893q0 -184 63.5 -264t224.5 -80zM578 1829v-27q0 -24 29.5 -38.5t86.5 -14.5t87 14.5t30 38.5v27h184v-29q0 -103 -86.5 -161t-214.5 -58q-127 0 -213 58.5t-86 160.5 v29h183z" />
<glyph unicode="&#x16d;" horiz-adv-x="1153" d="M92 385v678h283v-674q0 -108 51 -155.5t149 -47.5q99 0 151 47.5t52 155.5v674h285v-678q0 -199 -131.5 -302t-356.5 -103q-224 0 -353.5 101.5t-129.5 303.5zM461 1454v-27q0 -24 30 -38.5t87 -14.5t86.5 14.5t29.5 38.5v27h185v-29q0 -103 -86.5 -161t-214.5 -58 q-127 0 -213 58.5t-86 160.5v29h182z" />
<glyph unicode="&#x16e;" horiz-adv-x="1388" d="M694 209q161 0 226 80t65 264v893h297v-907q0 -273 -147 -416t-441 -143t-441 143t-147 416v907h300v-893q0 -184 63.5 -264t224.5 -80zM694 1679q51 0 79 33t28 78t-28 78t-79 33q-50 0 -78 -33t-28 -78t27.5 -78t78.5 -33zM694 1995q108 0 168 -60.5t60 -144.5 t-61 -147.5t-167 -63.5t-165.5 63t-59.5 148t58.5 145t166.5 60z" />
<glyph unicode="&#x16f;" horiz-adv-x="1153" d="M92 385v678h283v-674q0 -108 51 -155.5t149 -47.5q99 0 151 47.5t52 155.5v674h285v-678q0 -199 -131.5 -302t-356.5 -103q-224 0 -353.5 101.5t-129.5 303.5zM575 1305q51 0 79 32.5t28 77.5t-28 78t-79 33q-50 0 -78 -33t-28 -78t27.5 -77.5t78.5 -32.5zM575 1620 q108 0 168 -60.5t60 -144.5t-61 -147.5t-167 -63.5t-165.5 63t-59.5 148t58.5 145t166.5 60z" />
<glyph unicode="&#x170;" horiz-adv-x="1388" d="M694 209q161 0 226 80t65 264v893h297v-907q0 -273 -147 -416t-441 -143t-441 143t-147 416v907h300v-893q0 -184 63.5 -264t224.5 -80zM911 1864l-258 -283h-182l254 371h518l-323 -371h-199l205 270z" />
<glyph unicode="&#x171;" horiz-adv-x="1153" d="M92 385v678h283v-674q0 -108 51 -155.5t149 -47.5q99 0 151 47.5t52 155.5v674h285v-678q0 -199 -131.5 -302t-356.5 -103q-224 0 -353.5 101.5t-129.5 303.5zM793 1489l-258 -283h-183l254 371h518l-323 -371h-199l205 271z" />
<glyph unicode="&#x172;" horiz-adv-x="1388" d="M694 209q161 0 226 80t65 264v893h297v-907q0 -273 -147 -416t-441 -143t-441 143t-147 416v907h300v-893q0 -184 63.5 -264t224.5 -80zM860 -358q-95 -39 -198 -39q-91 0 -150 39.5t-59 117.5q0 44 18 82.5t50.5 68t59.5 47t62 36.5h102q-102 -68 -102 -168 q0 -28 21.5 -52t58.5 -24q27 0 61.5 9t55.5 17l20 9v-143z" />
<glyph unicode="&#x173;" horiz-adv-x="1153" d="M92 385v678h283v-674q0 -108 51 -155.5t149 -47.5q99 0 151 47.5t52 155.5v674h285v-678q0 -199 -131.5 -302t-356.5 -103q-224 0 -353.5 101.5t-129.5 303.5zM1067 -358q-95 -39 -199 -39q-91 0 -150 39.5t-59 117.5q0 44 18 82.5t51 68t59.5 47t62.5 36.5h102 q-102 -68 -102 -168q0 -28 21.5 -52t58.5 -24q27 0 61.5 9t54.5 17l21 9v-143z" />
<glyph unicode="&#x174;" horiz-adv-x="2078" d="M272 1446l285 -1059l361 1059h245l326 -1069l319 1069h285l-465 -1446h-280l-310 1063l-356 -1063h-276l-420 1446h286zM864 1579h-188l264 383h199l264 -383h-195l-172 201z" />
<glyph unicode="&#x175;" horiz-adv-x="1693" d="M1186 385l223 678h281l-387 -1063h-236l-223 766l-271 -766h-233l-338 1063h283l190 -682l252 682h246zM670 1204h-189l264 383h199l264 -383h-194l-172 201z" />
<glyph unicode="&#x176;" horiz-adv-x="1241" d="M-37 1446h309l353 -604l348 604h305l-502 -860v-586h-297v586zM446 1579h-188l264 383h199l264 -383h-194l-173 201z" />
<glyph unicode="&#x177;" horiz-adv-x="1077" d="M104 -207h27q75 0 105.5 3.5t68 26.5t59 71.5t48.5 140.5l-428 1028h284l281 -709l242 709h292l-436 -1135q-40 -104 -82.5 -169.5t-98 -103t-118.5 -51.5t-153 -14h-138l-26 203h73zM358 1204h-188l264 383h199l264 -383h-195l-172 201z" />
<glyph unicode="&#x178;" horiz-adv-x="1241" d="M-37 1446h309l353 -604l348 604h305l-502 -860v-586h-297v586zM1010 1868v-266h-209v266h209zM584 1868v-266h-207v266h207z" />
<glyph unicode="&#x179;" horiz-adv-x="1210" d="M57 172l754 1055h-721v219h1092v-160l-758 -1069h750v-217h-1117v172zM737 1982h314l-312 -383h-168z" />
<glyph unicode="&#x17a;" horiz-adv-x="966" d="M412 1559h313l-311 -383h-168zM913 188v-188h-847v162l483 721h-459v180h807v-145l-481 -730h497z" />
<glyph unicode="&#x17b;" horiz-adv-x="1210" d="M57 172l754 1055h-721v219h1092v-160l-758 -1069h750v-217h-1117v172zM739 1823v-221h-211v221h211z" />
<glyph unicode="&#x17c;" horiz-adv-x="966" d="M590 1454v-221h-211v221h211zM913 188v-188h-847v162l483 721h-459v180h807v-145l-481 -730h497z" />
<glyph unicode="&#x17d;" horiz-adv-x="1210" d="M57 172l754 1055h-721v219h1092v-160l-758 -1069h750v-217h-1117v172zM539 1599l-279 343h213l156 -158l159 158h222l-279 -343h-192z" />
<glyph unicode="&#x17e;" horiz-adv-x="966" d="M389 1174l-278 342h213l155 -158l160 158h221l-278 -342h-193zM913 188v-188h-847v162l483 721h-459v180h807v-145l-481 -730h497z" />
<glyph unicode="&#x18f;" />
<glyph unicode="&#x192;" horiz-adv-x="1046" d="M485 1071q55 371 361 371q53 0 143 -21l25 -6l-15 -215l-38 17q-52 20 -93 20q-66 0 -94 -30.5t-41 -100.5l-28 -154h190l-14 -192h-211l-125 -633q-12 -57 -19.5 -90t-24 -87.5t-34 -88t-46.5 -74t-63.5 -63t-83.5 -38.5t-108 -16q-31 0 -109 19l-22 6l16 203l37 -15 q37 -12 64 -12q55 0 83.5 44t49.5 126q27 103 50 213t55.5 285.5t41.5 222.5h-151l14 190h174z" />
<glyph unicode="&#x1c5;" />
<glyph unicode="&#x1c6;" horiz-adv-x="2228" d="M862 0l-6 150q-90 -170 -303 -170h-14q-150 3 -258 78.5t-161.5 201.5t-53.5 287q0 113 32 213.5t91.5 177t152 121.5t205.5 45q123 0 199 -46.5t110 -115.5v555h283v-1497h-277zM602 188q53 0 96.5 17t81 55t59 109t21.5 170q0 97 -22 169t-60 111t-81.5 57.5 t-94.5 18.5q-40 0 -75.5 -9.5t-71 -34t-61 -63.5t-41 -103t-15.5 -146q0 -97 23 -168t62 -109.5t83.5 -56t95.5 -17.5zM1614 1174l-279 342h213l156 -158l160 158h221l-279 -342h-192zM2138 188v-188h-848v162l484 721h-459v180h807v-145l-482 -730h498z" />
<glyph unicode="&#x1c7;" />
<glyph unicode="&#x1c8;" />
<glyph unicode="&#x1c9;" />
<glyph unicode="&#x1ca;" />
<glyph unicode="&#x1cb;" />
<glyph unicode="&#x1cc;" />
<glyph unicode="&#x1f1;" />
<glyph unicode="&#x1f2;" />
<glyph unicode="&#x1f3;" />
<glyph unicode="&#x1f4;" />
<glyph unicode="&#x1f5;" horiz-adv-x="1249" d="M608 207h8q116 0 189.5 92t73.5 248q0 159 -74 252.5t-189 95.5h-6q-131 0 -200.5 -92.5t-69.5 -255.5q0 -150 75.5 -245t192.5 -95zM494 -487h-138l-20 219h113q64 0 95 0.5t79 3t69.5 8.5t54 16.5t46 27.5t32 40.5t25 56.5t11.5 75.5t5 96.5v86q-47 -67 -116 -105 t-187 -38q-102 0 -192 37.5t-157.5 106t-106.5 173.5t-39 232q0 133 42 241.5t110.5 175.5t153 102.5t173.5 35.5h2q216 0 317 -146v105h283v-997q0 -149 -31 -249.5t-106 -170.5t-201.5 -101.5t-316.5 -31.5zM592 1559h313l-311 -383h-168z" />
<glyph unicode="&#x1fa;" />
<glyph unicode="&#x1fb;" />
<glyph unicode="&#x1fc;" />
<glyph unicode="&#x1fd;" />
<glyph unicode="&#x1fe;" />
<glyph unicode="&#x1ff;" />
<glyph unicode="&#x200;" horiz-adv-x="1298" d="M1028 0l-158 444h-428l-157 -444h-295l39 121l487 1325h281l473 -1325l41 -121h-283zM506 627h295l-144 489zM53 1939h307l207 -340h-188zM461 1939h282l230 -340h-209z" />
<glyph unicode="&#x201;" horiz-adv-x="1069" d="M723 115q-79 -67 -152 -101t-168 -34q-151 0 -243 82.5t-92 222.5q0 50 8 91t27.5 73t42 56.5t61.5 44t75 33t94 26t107.5 21t124.5 19.5l76 13v49q0 53 -4 81.5t-19.5 54t-47 36t-85.5 12.5h-14q-113 0 -330 -74l-55 203q162 74 410 80h24q189 0 297.5 -88.5 t108.5 -257.5v-758h-217zM453 162q46 0 88.5 13t69 28t73.5 47v252l-76 -13q-41 -6 -66.5 -10.5t-59 -12.5t-54 -17t-43 -23.5t-35 -32t-20.5 -42.5t-8 -56q0 -61 33.5 -97t97.5 -36zM-74 1565h307l207 -340h-188zM334 1565h282l230 -340h-209z" />
<glyph unicode="&#x202;" horiz-adv-x="1298" d="M1028 0l-158 444h-428l-157 -444h-295l39 121l487 1325h281l473 -1325l41 -121h-283zM506 627h295l-144 489zM795 1599v27q0 24 -30 38.5t-87 14.5t-87 -14.5t-30 -38.5v-27h-182v29q0 103 85.5 161t213.5 58q127 0 214 -58.5t87 -160.5v-29h-184z" />
<glyph unicode="&#x203;" horiz-adv-x="1069" d="M723 115q-79 -67 -152 -101t-168 -34q-151 0 -243 82.5t-92 222.5q0 50 8 91t27.5 73t42 56.5t61.5 44t75 33t94 26t107.5 21t124.5 19.5l76 13v49q0 53 -4 81.5t-19.5 54t-47 36t-85.5 12.5h-14q-113 0 -330 -74l-55 203q162 74 410 80h24q189 0 297.5 -88.5 t108.5 -257.5v-758h-217zM453 162q46 0 88.5 13t69 28t73.5 47v252l-76 -13q-41 -6 -66.5 -10.5t-59 -12.5t-54 -17t-43 -23.5t-35 -32t-20.5 -42.5t-8 -56q0 -61 33.5 -97t97.5 -36zM666 1225v26q0 24 -30 39t-87 15t-87 -15t-30 -39v-26h-182v28q0 103 86 161.5t213 58.5 t214 -59t87 -161v-28h-184z" />
<glyph unicode="&#x204;" horiz-adv-x="1128" d="M1063 1446l-25 -219h-618v-359h596v-217h-596v-432l672 -8l-13 -211h-958v1446h942zM-78 1939h307l207 -340h-188zM330 1939h282l230 -340h-209z" />
<glyph unicode="&#x205;" horiz-adv-x="1107" d="M344 627h455v10q0 128 -54.5 193t-156.5 65q-38 0 -75.5 -12.5t-75 -41t-63 -83.5t-30.5 -131zM1055 475h-713q4 -144 81.5 -217.5t217.5 -73.5q91 0 171.5 27.5t133.5 67.5l78 -175q-158 -124 -393 -124q-273 0 -420.5 150t-147.5 411q0 158 60.5 284.5t180.5 202.5 t280 76q118 0 210 -44t148.5 -120t85.5 -172t29 -205v-4q0 -13 -1 -39.5t-1 -40.5v-4zM-37 1565h307l207 -340h-188zM371 1565h282l230 -340h-209z" />
<glyph unicode="&#x206;" horiz-adv-x="1128" d="M1063 1446l-25 -219h-618v-359h596v-217h-596v-432l672 -8l-13 -211h-958v1446h942zM662 1599v27q0 24 -30 38.5t-87 14.5t-87 -14.5t-30 -38.5v-27h-182v29q0 103 85.5 161t213.5 58q127 0 214 -58.5t87 -160.5v-29h-184z" />
<glyph unicode="&#x207;" horiz-adv-x="1107" d="M344 627h455v10q0 128 -54.5 193t-156.5 65q-38 0 -75.5 -12.5t-75 -41t-63 -83.5t-30.5 -131zM1055 475h-713q4 -144 81.5 -217.5t217.5 -73.5q91 0 171.5 27.5t133.5 67.5l78 -175q-158 -124 -393 -124q-273 0 -420.5 150t-147.5 411q0 158 60.5 284.5t180.5 202.5 t280 76q118 0 210 -44t148.5 -120t85.5 -172t29 -205v-4q0 -13 -1 -39.5t-1 -40.5v-4zM702 1225v26q0 24 -30 39t-86 15q-57 0 -87 -15t-30 -39v-26h-182v28q0 103 86 161.5t213 58.5t214 -59t87 -161v-28h-185z" />
<glyph unicode="&#x208;" horiz-adv-x="565" d="M432 1446v-1446h-299v1446h299zM-399 1939h307l207 -340h-189zM8 1939h283l229 -340h-209z" />
<glyph unicode="&#x209;" horiz-adv-x="585" d="M410 1063v-1063h-283v1063h283zM-297 1565h307l207 -340h-188zM111 1565h282l230 -340h-209z" />
<glyph unicode="&#x20a;" horiz-adv-x="565" d="M432 1446v-1446h-299v1446h299zM340 1599v27q0 24 -30 38.5t-87 14.5t-87 -14.5t-30 -38.5v-27h-182v29q0 103 85.5 161t213.5 58q127 0 214 -58.5t87 -160.5v-29h-184z" />
<glyph unicode="&#x20b;" horiz-adv-x="585" d="M410 1063v-1063h-283v1063h283zM442 1225v26q0 24 -30 39t-86 15q-57 0 -87 -15t-30 -39v-26h-182v28q0 103 86 161.5t213 58.5t214 -59t87 -161v-28h-185z" />
<glyph unicode="&#x20c;" horiz-adv-x="1593" d="M1227 723q0 237 -109.5 378.5t-318.5 141.5q-207 0 -315.5 -141.5t-108.5 -378.5q0 -236 108.5 -374t315.5 -138q208 0 318 138.5t110 373.5zM72 727q0 175 55 317.5t152 237t230 146t288 51.5q156 0 289 -51.5t230.5 -146t152.5 -237t55 -317.5q0 -173 -55.5 -315 t-153 -236t-230.5 -145t-288 -51q-208 0 -371 87.5t-258.5 258.5t-95.5 401zM160 1939h307l207 -340h-189zM567 1939h283l229 -340h-209z" />
<glyph unicode="&#x20d;" horiz-adv-x="1175" d="M588 1104q252 0 388 -154.5t136 -410.5q0 -251 -136 -405t-388 -154t-388.5 154t-136.5 405q0 167 58 293t178 199t289 73zM588 186q117 0 185.5 91.5t68.5 261.5q0 174 -69 265t-185 91t-184 -91t-68 -265q0 -170 68 -261.5t184 -91.5zM-57 1565h307l207 -340h-189z M350 1565h283l229 -340h-209z" />
<glyph unicode="&#x20e;" horiz-adv-x="1593" d="M1227 723q0 237 -109.5 378.5t-318.5 141.5q-207 0 -315.5 -141.5t-108.5 -378.5q0 -236 108.5 -374t315.5 -138q208 0 318 138.5t110 373.5zM72 727q0 175 55 317.5t152 237t230 146t288 51.5q156 0 289 -51.5t230.5 -146t152.5 -237t55 -317.5q0 -173 -55.5 -315 t-153 -236t-230.5 -145t-288 -51q-208 0 -371 87.5t-258.5 258.5t-95.5 401zM899 1599v27q0 24 -30 38.5t-87 14.5t-86.5 -14.5t-29.5 -38.5v-27h-183v29q0 103 85.5 161t213.5 58q127 0 214 -58.5t87 -160.5v-29h-184z" />
<glyph unicode="&#x20f;" horiz-adv-x="1175" d="M588 1104q252 0 388 -154.5t136 -410.5q0 -251 -136 -405t-388 -154t-388.5 154t-136.5 405q0 167 58 293t178 199t289 73zM588 186q117 0 185.5 91.5t68.5 261.5q0 174 -69 265t-185 91t-184 -91t-68 -265q0 -170 68 -261.5t184 -91.5zM682 1225v26q0 24 -30 39t-87 15 t-86.5 -15t-29.5 -39v-26h-183v28q0 103 86 161.5t213 58.5t214 -59t87 -161v-28h-184z" />
<glyph unicode="&#x210;" horiz-adv-x="1302" d="M1229 1034q0 -288 -258 -383q29 -34 55 -75.5t40 -69t44 -88.5l205 -418h-314l-157 344l-127 250q-19 2 -93.5 3t-139.5 1h-64v-598h-299v1446h557q107 0 187.5 -10.5t151.5 -38t116 -73.5t70.5 -118.5t25.5 -171.5zM952 1030q0 103 -65 151t-195 48h-272v-420h266 q140 0 203 51.5t63 169.5zM-319 1939h307l207 -340h-189zM88 1939h283l229 -340h-209z" />
<glyph unicode="&#x211;" horiz-adv-x="667" d="M655 1063h29l14 -215h-75q-73 0 -121.5 -18t-73 -55t-34 -81t-9.5 -108v-586h-283v1063h263l20 -145q54 75 114.5 110t155.5 35zM-256 1565h307l207 -340h-188zM152 1565h282l230 -340h-209z" />
<glyph unicode="&#x212;" horiz-adv-x="1302" d="M1229 1034q0 -288 -258 -383q29 -34 55 -75.5t40 -69t44 -88.5l205 -418h-314l-157 344l-127 250q-19 2 -93.5 3t-139.5 1h-64v-598h-299v1446h557q107 0 187.5 -10.5t151.5 -38t116 -73.5t70.5 -118.5t25.5 -171.5zM952 1030q0 103 -65 151t-195 48h-272v-420h266 q140 0 203 51.5t63 169.5zM420 1599v27q0 24 -30 38.5t-87 14.5t-87 -14.5t-30 -38.5v-27h-182v29q0 103 85.5 161t213.5 58q127 0 214 -58.5t87 -160.5v-29h-184z" />
<glyph unicode="&#x213;" horiz-adv-x="667" d="M655 1063h29l14 -215h-75q-73 0 -121.5 -18t-73 -55t-34 -81t-9.5 -108v-586h-283v1063h263l20 -145q54 75 114.5 110t155.5 35zM483 1225v26q0 24 -29.5 39t-86.5 15t-87 -15t-30 -39v-26h-182v28q0 103 86 161.5t213 58.5t214 -59t87 -161v-28h-185z" />
<glyph unicode="&#x214;" horiz-adv-x="1388" d="M694 209q161 0 226 80t65 264v893h297v-907q0 -273 -147 -416t-441 -143t-441 143t-147 416v907h300v-893q0 -184 63.5 -264t224.5 -80zM33 1939h307l207 -340h-189zM440 1939h283l229 -340h-209z" />
<glyph unicode="&#x215;" horiz-adv-x="1153" d="M92 385v678h283v-674q0 -108 51 -155.5t149 -47.5q99 0 151 47.5t52 155.5v674h285v-678q0 -199 -131.5 -302t-356.5 -103q-224 0 -353.5 101.5t-129.5 303.5zM-72 1565h308l206 -340h-188zM336 1565h282l230 -340h-209z" />
<glyph unicode="&#x216;" horiz-adv-x="1388" d="M694 209q161 0 226 80t65 264v893h297v-907q0 -273 -147 -416t-441 -143t-441 143t-147 416v907h300v-893q0 -184 63.5 -264t224.5 -80zM772 1599v27q0 24 -30 38.5t-87 14.5t-86.5 -14.5t-29.5 -38.5v-27h-183v29q0 103 85.5 161t213.5 58q127 0 214 -58.5t87 -160.5 v-29h-184z" />
<glyph unicode="&#x217;" horiz-adv-x="1153" d="M92 385v678h283v-674q0 -108 51 -155.5t149 -47.5q99 0 151 47.5t52 155.5v674h285v-678q0 -199 -131.5 -302t-356.5 -103q-224 0 -353.5 101.5t-129.5 303.5zM668 1225v26q0 24 -30 39t-87 15t-87 -15t-30 -39v-26h-182v28q0 103 86 161.5t213 58.5t214 -59t87 -161v-28 h-184z" />
<glyph unicode="&#x218;" horiz-adv-x="1191" d="M997 1163q-146 90 -395 90q-229 0 -229 -157q0 -76 38 -114.5t113 -63.5l199 -66q54 -18 91.5 -32.5t85 -37t80.5 -45.5t67 -56t54 -70.5t33 -87t13 -107.5q0 -109 -43 -193t-120 -136.5t-178 -79.5t-222 -27q-328 0 -521 124l78 218q77 -49 199 -81t242 -32 q268 0 268 172q0 39 -12.5 70.5t-30.5 52t-51 40t-60.5 30t-72.5 26.5l-183 62q-61 20 -108.5 41t-97.5 55.5t-83 75.5t-54 101t-21 132q0 133 72 228t189 139.5t265 44.5q313 0 473 -115zM569 -666h-184l115 525h243z" />
<glyph unicode="&#x219;" horiz-adv-x="909" d="M819 1018l-49 -184q-52 28 -137.5 46.5t-149.5 18.5q-85 0 -124 -21.5t-42 -66.5q-3 -52 21.5 -75t99.5 -50l164 -57q113 -39 188.5 -115.5t75.5 -189.5q0 -69 -22.5 -129.5t-66 -108.5t-115 -76t-162.5 -28q-298 0 -447 106l56 184q62 -40 166.5 -64t189.5 -24 q64 0 103.5 26.5t39.5 82.5q0 45 -21 68.5t-83 46.5l-160 59q-63 23 -109 48.5t-86 62t-60.5 86.5t-20.5 114q0 160 107 243t286 83q233 0 358 -86zM549 -666h-184l114 525h244z" />
<glyph unicode="&#x21a;" horiz-adv-x="1089" d="M692 1227v-1227h-297v1227h-422v219h1143v-219h-424zM641 -645h-184l114 524h244z" />
<glyph unicode="&#x21b;" horiz-adv-x="772" d="M438 893v-453q0 -51 1.5 -80.5t7 -60t16 -46t29 -28.5t46 -17.5t66.5 -4.5l90 6l17 -209q-105 -12 -160 -12q-98 0 -167.5 19.5t-114 55t-69.5 95.5t-34.5 130t-9.5 169v436h-185l17 170h168l69 387h213v-387h262v-170h-262zM715 -651h-185l115 524h244z" />
<glyph unicode="&#x2c6;" horiz-adv-x="741" d="M213 1133h-188l264 383h198l265 -383h-195l-172 200z" />
<glyph unicode="&#x2da;" horiz-adv-x="663" d="M326 1225q51 0 78.5 32.5t27.5 77.5t-27.5 78t-78.5 33q-50 0 -78.5 -33t-28.5 -78t28 -77.5t79 -32.5zM326 1540q108 0 167.5 -60.5t59.5 -144.5q0 -85 -60.5 -148t-166.5 -63t-166 63t-60 148q0 84 59 144.5t167 60.5z" />
<glyph unicode="&#x2dc;" horiz-adv-x="739" d="M512 1374q47 0 47 80h160q0 -25 -0.5 -40t-3.5 -44t-9 -48t-18.5 -42.5t-29.5 -37.5t-44.5 -24t-62.5 -10q-49 0 -123.5 22t-133 44t-69.5 22q-25 0 -36 -20.5t-11 -67.5h-155q0 27 0.5 42t3.5 44.5t9 47.5t18 42t29.5 37.5t44.5 23t62 9.5q58 0 126.5 -20t121.5 -40 t74 -20z" />
<glyph unicode="&#x2000;" horiz-adv-x="997" />
<glyph unicode="&#x2001;" horiz-adv-x="1995" />
<glyph unicode="&#x2002;" horiz-adv-x="997" />
<glyph unicode="&#x2003;" horiz-adv-x="1995" />
<glyph unicode="&#x2004;" horiz-adv-x="665" />
<glyph unicode="&#x2005;" horiz-adv-x="498" />
<glyph unicode="&#x2006;" horiz-adv-x="332" />
<glyph unicode="&#x2007;" horiz-adv-x="332" />
<glyph unicode="&#x2008;" horiz-adv-x="249" />
<glyph unicode="&#x2009;" horiz-adv-x="399" />
<glyph unicode="&#x200a;" horiz-adv-x="110" />
<glyph unicode="&#x2010;" horiz-adv-x="696" d="M629 432h-559v195h559v-195z" />
<glyph unicode="&#x2011;" horiz-adv-x="696" d="M629 432h-559v195h559v-195z" />
<glyph unicode="&#x2012;" horiz-adv-x="696" d="M629 432h-559v195h559v-195z" />
<glyph unicode="&#x2013;" horiz-adv-x="1218" d="M70 637h1081v-199h-1081v199z" />
<glyph unicode="&#x2014;" horiz-adv-x="1992" d="M-6 637h1997v-199h-1997v199z" />
<glyph unicode="&#x2018;" horiz-adv-x="419" d="M385 983h-184l-166 500h237z" />
<glyph unicode="&#x2019;" horiz-adv-x="419" d="M219 983h-182l113 500h237z" />
<glyph unicode="&#x201a;" horiz-adv-x="573" d="M299 -289h-186l112 500h240z" />
<glyph unicode="&#x201c;" horiz-adv-x="712" d="M377 983h-174l-168 500h239zM680 983h-186l-152 500h225z" />
<glyph unicode="&#x201d;" horiz-adv-x="1003" d="M668 983h-172l102 500h238zM379 983h-189l113 500h227z" />
<glyph unicode="&#x201e;" horiz-adv-x="1042" d="M348 -289h-184l112 500h248zM713 -289h-195l123 500h238z" />
<glyph unicode="&#x2026;" horiz-adv-x="1585" d="M147 209h267v-270h-267v270zM651 209h283v-270h-283v270zM1171 209h267v-270h-267v270z" />
<glyph unicode="&#x202f;" horiz-adv-x="399" />
<glyph unicode="&#x2039;" horiz-adv-x="571" d="M315 924h224l-273 -377l264 -377h-221l-276 377z" />
<glyph unicode="&#x203a;" horiz-adv-x="571" d="M254 170h-221l270 377l-262 377h219l281 -377z" />
<glyph unicode="&#x205f;" horiz-adv-x="498" />
<glyph unicode="&#x20ac;" horiz-adv-x="1183" d="M750 -18q-125 0 -223 40t-161.5 112t-102 161.5t-56.5 198.5h-137l28 196h90v70h-120l28 196h117q23 105 67.5 193t112 158.5t167 110.5t220.5 40q208 0 336 -137l-49 -281l-43 66q-91 147 -250 147q-70 0 -124.5 -23.5t-92 -66.5t-62 -92t-42.5 -113h553l-27 -198h-553 v-45v-15v-10h549q0 -1 -1 -3t-1 -3l-27 -190h-497q14 -71 36 -124t58 -96t92 -65.5t131 -22.5q79 0 143 31t135 90l50 43v-260q-154 -108 -344 -108z" />
<glyph unicode="&#x2122;" horiz-adv-x="1792" d="M766 686v774h233l195 -504l205 504h215v-774h-176v485l-197 -485h-106l-187 477v-477h-182zM61 1300v160h658v-160h-232v-614h-184v614h-242z" />
<glyph unicode="&#x25fc;" horiz-adv-x="1064" d="M0 1065h1065v-1065h-1065v1065z" />
</font>
</defs>
</svg>
